<?xml version="1.0" encoding="UTF-8" standalone="no"?>
<svg
   xmlns:serif="http://www.serif.com/"
   xmlns:dc="http://purl.org/dc/elements/1.1/"
   xmlns:cc="http://creativecommons.org/ns#"
   xmlns:rdf="http://www.w3.org/1999/02/22-rdf-syntax-ns#"
   xmlns:svg="http://www.w3.org/2000/svg"
   xmlns="http://www.w3.org/2000/svg"
   xmlns:sodipodi="http://sodipodi.sourceforge.net/DTD/sodipodi-0.dtd"
   xmlns:inkscape="http://www.inkscape.org/namespaces/inkscape"
   width="3640.8291"
   height="955.72198"
   viewBox="0 0 3640.8291 955.722"
   version="1.1"
   xml:space="preserve"
   style="clip-rule:evenodd;fill-rule:evenodd;stroke-linecap:square;stroke-linejoin:round;stroke-miterlimit:1.5"
   id="svg94"
   sodipodi:docname="NUMALogo_Rectangle_Black_alpha_cut.svg"
   inkscape:version="1.0.2-2 (e86c870879, 2021-01-15)"><metadata
     id="metadata100"><rdf:RDF><cc:Work
         rdf:about=""><dc:format>image/svg+xml</dc:format><dc:type
           rdf:resource="http://purl.org/dc/dcmitype/StillImage" /><dc:title></dc:title></cc:Work></rdf:RDF></metadata><defs
     id="defs98" /><sodipodi:namedview
     pagecolor="#ffffff"
     bordercolor="#666666"
     borderopacity="1"
     objecttolerance="10"
     gridtolerance="10"
     guidetolerance="10"
     inkscape:pageopacity="0"
     inkscape:pageshadow="2"
     inkscape:window-width="1920"
     inkscape:window-height="1017"
     id="namedview96"
     showgrid="false"
     inkscape:zoom="0.12453918"
     inkscape:cx="3349.3414"
     inkscape:cy="173.86554"
     inkscape:window-x="-8"
     inkscape:window-y="-1"
     inkscape:window-maximized="1"
     inkscape:current-layer="svg94"
     lock-margins="true"
     fit-margin-top="20"
     fit-margin-left="20"
     fit-margin-right="20"
     fit-margin-bottom="20" /><g
     id="LOGO"
     transform="translate(-200.82602,-647.13901)"><circle
       id="BASE"
       cx="678.68701"
       cy="1125"
       r="457.86099"
       style="fill:#d2002d" /><g
       id="M"><path
         id="_1"
         serif:id="1"
         d="m 457.484,1238.06 c 35.02,5.019 59.377,37.526 54.358,72.546 -5.019,35.021 -37.526,59.378 -72.546,54.358 -35.02,-5.019 -59.377,-37.526 -54.358,-72.546 5.019,-35.02 37.526,-59.377 72.546,-54.358 z"
         style="fill:#ffffff" /><path
         id="_1to2"
         serif:id="1to2"
         d="m 457.794,1238.43 41.244,-212.478"
         style="fill:none;stroke:#ffffff;stroke-width:36.46px" /><path
         id="_2"
         serif:id="2"
         d="m 534.382,909.768 c 32.049,9.694 50.198,43.584 40.504,75.632 -9.694,32.049 -43.584,50.198 -75.633,40.504 -32.048,-9.694 -50.198,-43.584 -40.504,-75.632 9.694,-32.049 43.584,-50.198 75.633,-40.504 z"
         style="fill:#ffffff" /><path
         id="_2to3"
         serif:id="2to3"
         d="m 553.836,995.759 76.279,61.331"
         style="fill:none;stroke:#ffffff;stroke-width:36.46px" /><circle
         id="_3"
         serif:id="3"
         cx="683.453"
         cy="1084.75"
         r="64.099998"
         style="fill:#ffffff" /><path
         id="_3to4"
         serif:id="3to4"
         d="m 810.802,935.156 -94.168,112.179"
         style="fill:none;stroke:#ffffff;stroke-width:36.46px" /><circle
         id="_4"
         serif:id="4"
         cx="837.97601"
         cy="891.90302"
         r="60.667"
         style="fill:#ffffff" /><path
         id="_4to5"
         serif:id="4to5"
         d="M 904.14,1196.15 850.104,941.35"
         style="fill:none;stroke:#ffffff;stroke-width:36.46px" /><circle
         id="_5"
         serif:id="5"
         cx="917.36902"
         cy="1246.8199"
         r="64.099998"
         style="fill:#ffffff" /></g><g
       id="Word"><path
         d="m 450.146,1391.34 h 91.698 v 71.73 h -12.301 v -59.908 h -67.096 v 59.908 h -12.301 z"
         style="fill:#ffffff;fill-rule:nonzero"
         id="path13" /><path
         d="m 643.288,1391.34 h 12.302 v 71.73 h -91.699 v -71.73 h 12.301 v 59.749 h 67.096 z"
         style="fill:#ffffff;fill-rule:nonzero"
         id="path15" /><path
         d="m 677.636,1391.34 h 116.62 v 71.251 h -12.301 v -59.429 h -40.098 v 58.311 h -11.822 v -58.311 h -40.258 v 59.429 h -12.141 z"
         style="fill:#ffffff;fill-rule:nonzero"
         id="path17" /><path
         d="m 815.024,1391.34 h 91.38 v 71.73 h -91.699 v -37.542 h 79.398 v -22.366 h -79.079 z m 11.982,60.068 h 67.097 v -14.058 h -67.097 z"
         style="fill:#ffffff;fill-rule:nonzero"
         id="path19" /></g></g><g
     id="black"
     transform="translate(-200.82602,-647.13901)"><path
       d="M 1263.7,1065.95 V 877.309 c 0,-2.976 0.893,-5.356 2.678,-7.141 1.785,-1.785 4.166,-2.678 7.141,-2.678 h 23.803 c 3.372,0 6.05,1.488 8.034,4.463 l 72.302,109.495 c 4.761,7.141 8.728,10.711 11.902,10.711 3.967,0 5.951,-5.355 5.951,-16.067 v -98.783 c 0,-2.976 0.892,-5.356 2.678,-7.141 1.785,-1.785 4.165,-2.678 7.141,-2.678 h 19.34 c 2.975,0 5.355,0.893 7.141,2.678 1.785,1.785 2.678,4.165 2.678,7.141 v 188.641 c 0,2.975 -0.893,5.355 -2.678,7.141 -1.786,1.785 -4.166,2.677 -7.141,2.677 h -21.721 c -3.57,0 -6.347,-1.487 -8.331,-4.463 l -74.385,-113.958 c -4.761,-7.141 -8.728,-10.711 -11.902,-10.711 -3.967,0 -5.951,5.355 -5.951,16.067 v 103.247 c 0,2.975 -0.892,5.355 -2.677,7.141 -1.786,1.785 -4.166,2.677 -7.141,2.677 h -19.043 c -2.975,0 -5.356,-0.892 -7.141,-2.677 -1.785,-1.786 -2.678,-4.166 -2.678,-7.141 z"
       style="fill-rule:nonzero"
       id="path23" /><path
       d="m 1517.2,887.572 c 0,6.447 -2.182,11.951 -6.546,16.513 -4.364,4.563 -9.769,6.844 -16.216,6.844 -6.447,0 -11.902,-2.281 -16.365,-6.844 -4.463,-4.562 -6.694,-10.017 -6.694,-16.364 0,-6.348 2.231,-11.753 6.694,-16.216 4.463,-4.463 9.918,-6.695 16.365,-6.695 6.447,0 11.852,2.182 16.216,6.546 4.364,4.364 6.546,9.769 6.546,16.216 z m -41.358,178.376 V 942.171 c 0,-2.976 0.892,-5.356 2.678,-7.141 1.785,-1.786 4.165,-2.678 7.141,-2.678 h 17.852 c 2.975,0 5.356,0.892 7.141,2.678 1.785,1.785 2.678,4.165 2.678,7.141 v 123.777 c 0,2.975 -0.893,5.355 -2.678,7.141 -1.785,1.785 -4.166,2.677 -7.141,2.677 h -17.852 c -2.976,0 -5.356,-0.892 -7.141,-2.677 -1.786,-1.786 -2.678,-4.166 -2.678,-7.141 z"
       style="fill-rule:nonzero"
       id="path25" /><path
       d="m 1551.72,1123.67 v -181.5 c 0,-2.976 0.892,-5.356 2.677,-7.141 1.786,-1.786 4.166,-2.678 7.141,-2.678 h 15.77 c 4.562,0 7.141,2.132 7.736,6.397 0.595,4.265 2.48,5.009 5.653,2.231 9.323,-8.132 19.985,-12.199 31.986,-12.199 12.001,0 22.365,1.934 31.093,5.802 8.728,3.868 15.968,9.075 21.721,15.621 11.901,13.489 17.852,31.44 17.852,53.855 0,22.216 -6.149,40.168 -18.448,53.855 -12.496,14.084 -29.654,21.125 -51.474,21.125 -6.744,0 -12.546,-0.942 -17.406,-2.826 -4.86,-1.885 -8.083,-2.827 -9.67,-2.827 -4.761,0 -7.141,3.67 -7.141,11.009 v 39.276 c 0,2.975 -0.893,5.355 -2.678,7.14 -1.785,1.786 -4.166,2.678 -7.141,2.678 h -17.853 c -2.975,0 -5.355,-0.892 -7.141,-2.678 -1.785,-1.785 -2.677,-4.165 -2.677,-7.14 z m 70.219,-78.551 c 10.91,0 19.44,-4.265 25.589,-12.795 5.355,-7.339 8.033,-16.761 8.033,-28.266 0,-11.505 -2.678,-21.125 -8.033,-28.861 -5.753,-8.331 -14.282,-12.497 -25.589,-12.497 -11.108,0 -19.637,4.166 -25.588,12.497 -5.158,7.736 -7.736,17.356 -7.736,28.861 0,11.307 2.578,20.729 7.736,28.266 5.951,8.53 14.48,12.795 25.588,12.795 z"
       style="fill-rule:nonzero"
       id="path27" /><path
       d="m 1720.42,1123.67 v -181.5 c 0,-2.976 0.893,-5.356 2.678,-7.141 1.785,-1.786 4.166,-2.678 7.141,-2.678 h 15.77 c 4.562,0 7.141,2.132 7.736,6.397 0.595,4.265 2.479,5.009 5.653,2.231 9.323,-8.132 19.985,-12.199 31.986,-12.199 12.001,0 22.365,1.934 31.093,5.802 8.728,3.868 15.968,9.075 21.72,15.621 11.902,13.489 17.853,31.44 17.853,53.855 0,22.216 -6.15,40.168 -18.448,53.855 -12.497,14.084 -29.655,21.125 -51.474,21.125 -6.745,0 -12.547,-0.942 -17.407,-2.826 -4.859,-1.885 -8.083,-2.827 -9.67,-2.827 -4.76,0 -7.141,3.67 -7.141,11.009 v 39.276 c 0,2.975 -0.892,5.355 -2.678,7.14 -1.785,1.786 -4.165,2.678 -7.14,2.678 h -17.853 c -2.975,0 -5.356,-0.892 -7.141,-2.678 -1.785,-1.785 -2.678,-4.165 -2.678,-7.14 z m 70.22,-78.551 c 10.91,0 19.439,-4.265 25.588,-12.795 5.356,-7.339 8.034,-16.761 8.034,-28.266 0,-11.505 -2.678,-21.125 -8.034,-28.861 -5.752,-8.331 -14.282,-12.497 -25.588,-12.497 -11.108,0 -19.638,4.166 -25.589,12.497 -5.157,7.736 -7.736,17.356 -7.736,28.861 0,11.307 2.579,20.729 7.736,28.266 5.951,8.53 14.481,12.795 25.589,12.795 z"
       style="fill-rule:nonzero"
       id="path29" /><path
       d="m 1951.61,1079.04 c -10.909,0 -20.728,-1.983 -29.456,-5.95 -8.728,-3.968 -16.067,-9.323 -22.018,-16.068 -12.298,-13.885 -18.448,-31.539 -18.448,-52.962 0,-21.621 6.249,-39.474 18.745,-53.557 13.092,-14.481 30.151,-21.721 51.177,-21.721 21.622,0 38.879,7.34 51.773,22.018 12.1,13.687 18.15,31.44 18.15,53.26 0,21.621 -6.249,39.474 -18.746,53.557 -12.893,14.282 -29.952,21.423 -51.177,21.423 z m -14.877,-37.49 c 4.166,2.381 9.175,3.571 15.026,3.571 5.852,0 10.811,-1.19 14.877,-3.571 4.067,-2.38 7.389,-5.455 9.968,-9.224 4.959,-7.537 7.438,-16.959 7.438,-28.266 0,-18.646 -5.752,-31.242 -17.257,-37.788 -4.166,-2.38 -9.224,-3.57 -15.175,-3.57 -10.711,0 -18.943,4.364 -24.695,13.092 -4.761,7.141 -7.141,16.563 -7.141,28.266 0,18.249 5.653,30.746 16.959,37.49 z"
       style="fill-rule:nonzero"
       id="path31" /><path
       d="M 2048.91,1065.95 V 942.173 c 0,-2.976 0.893,-5.356 2.678,-7.141 1.785,-1.786 4.166,-2.678 7.141,-2.678 h 15.472 c 2.381,0 4.414,0.744 6.1,2.231 1.686,1.488 2.727,3.521 3.124,6.1 0.397,2.579 1.19,3.868 2.38,3.868 1.19,0 3.372,-1.488 6.546,-4.463 8.133,-7.538 17.258,-11.307 27.374,-11.307 10.116,0 18.348,1.438 24.696,4.315 6.347,2.876 11.604,6.793 15.77,11.752 8.132,9.919 12.199,23.407 12.199,40.466 v 80.634 c 0,2.975 -0.893,5.355 -2.678,7.141 -1.785,1.785 -4.166,2.677 -7.141,2.677 h -17.853 c -2.975,0 -5.355,-0.892 -7.141,-2.677 -1.785,-1.786 -2.677,-4.166 -2.677,-7.141 v -71.41 c 0,-14.282 -3.868,-23.903 -11.605,-28.862 -2.777,-1.983 -6.545,-2.975 -11.306,-2.975 -4.761,0 -8.778,0.992 -12.051,2.975 -3.272,1.984 -5.901,4.563 -7.884,7.736 -3.769,5.951 -5.654,13.687 -5.654,23.209 v 69.327 c 0,2.975 -0.892,5.355 -2.677,7.141 -1.786,1.785 -4.166,2.677 -7.141,2.677 h -17.853 c -2.975,0 -5.356,-0.892 -7.141,-2.677 -1.785,-1.786 -2.678,-4.166 -2.678,-7.141 z"
       style="fill-rule:nonzero"
       id="path33" /><path
       d="m 2452.67,997.513 c 0,54.748 -26.977,82.121 -80.931,82.121 -54.152,0 -81.229,-27.373 -81.229,-82.121 V 877.307 c 0,-2.976 0.893,-5.356 2.678,-7.141 1.785,-1.785 4.166,-2.678 7.141,-2.678 h 19.34 c 2.976,0 5.356,0.893 7.141,2.678 1.786,1.785 2.678,4.165 2.678,7.141 V 995.43 c 0,31.143 14.084,46.714 42.251,46.714 15.274,0 26.084,-4.215 32.432,-12.645 6.347,-8.43 9.521,-19.787 9.521,-34.069 V 877.307 c 0,-2.976 0.893,-5.356 2.678,-7.141 1.785,-1.785 4.166,-2.678 7.141,-2.678 h 19.34 c 2.976,0 5.356,0.893 7.141,2.678 1.785,1.785 2.678,4.165 2.678,7.141 z"
       style="fill-rule:nonzero"
       id="path35" /><path
       d="M 2487.48,1065.95 V 942.173 c 0,-2.976 0.893,-5.356 2.678,-7.141 1.785,-1.786 4.166,-2.678 7.141,-2.678 h 15.472 c 2.381,0 4.414,0.744 6.1,2.231 1.686,1.488 2.727,3.521 3.124,6.1 0.397,2.579 1.19,3.868 2.38,3.868 1.191,0 3.373,-1.488 6.546,-4.463 8.133,-7.538 17.258,-11.307 27.374,-11.307 10.116,0 18.348,1.438 24.696,4.315 6.348,2.876 11.604,6.793 15.77,11.752 8.132,9.919 12.199,23.407 12.199,40.466 v 80.634 c 0,2.975 -0.893,5.355 -2.678,7.141 -1.785,1.785 -4.166,2.677 -7.141,2.677 h -17.852 c -2.976,0 -5.356,-0.892 -7.141,-2.677 -1.786,-1.786 -2.678,-4.166 -2.678,-7.141 v -71.41 c 0,-14.282 -3.868,-23.903 -11.604,-28.862 -2.777,-1.983 -6.546,-2.975 -11.307,-2.975 -4.761,0 -8.777,0.992 -12.05,2.975 -3.273,1.984 -5.902,4.563 -7.885,7.736 -3.769,5.951 -5.653,13.687 -5.653,23.209 v 69.327 c 0,2.975 -0.893,5.355 -2.678,7.141 -1.786,1.785 -4.166,2.677 -7.141,2.677 h -17.853 c -2.975,0 -5.356,-0.892 -7.141,-2.677 -1.785,-1.786 -2.678,-4.166 -2.678,-7.141 z"
       style="fill-rule:nonzero"
       id="path37" /><path
       d="m 2691.6,887.572 c 0,6.447 -2.182,11.951 -6.546,16.513 -4.363,4.563 -9.769,6.844 -16.216,6.844 -6.446,0 -11.901,-2.281 -16.364,-6.844 -4.463,-4.562 -6.695,-10.017 -6.695,-16.364 0,-6.348 2.232,-11.753 6.695,-16.216 4.463,-4.463 9.918,-6.695 16.364,-6.695 6.447,0 11.853,2.182 16.216,6.546 4.364,4.364 6.546,9.769 6.546,16.216 z m -41.358,178.376 V 942.171 c 0,-2.976 0.893,-5.356 2.678,-7.141 1.785,-1.786 4.166,-2.678 7.141,-2.678 h 17.852 c 2.976,0 5.356,0.892 7.141,2.678 1.786,1.785 2.678,4.165 2.678,7.141 v 123.777 c 0,2.975 -0.892,5.355 -2.678,7.141 -1.785,1.785 -4.165,2.677 -7.141,2.677 h -17.852 c -2.975,0 -5.356,-0.892 -7.141,-2.677 -1.785,-1.786 -2.678,-4.166 -2.678,-7.141 z"
       style="fill-rule:nonzero"
       id="path39" /><path
       d="m 2765.39,1069.52 -46.416,-124.074 c -1.587,-3.968 -1.537,-7.141 0.149,-9.522 1.686,-2.38 4.612,-3.57 8.777,-3.57 h 17.555 c 4.563,0 7.637,2.182 9.224,6.546 l 22.018,63.376 c 2.777,7.934 5.802,11.902 9.075,11.902 3.273,0 6.298,-3.968 9.075,-11.902 l 22.316,-63.376 c 1.586,-4.364 4.661,-6.546 9.223,-6.546 h 15.77 c 3.967,0 6.843,1.19 8.629,3.57 1.785,2.381 1.884,5.554 0.297,9.522 l -44.928,124.074 c -1.786,4.166 -4.86,6.248 -9.224,6.248 h -22.316 c -4.562,0 -7.637,-2.082 -9.224,-6.248 z"
       style="fill-rule:nonzero"
       id="path41" /><path
       d="m 2995.39,1048.39 c -14.083,20.431 -33.721,30.646 -58.913,30.646 -23.406,0 -41.358,-6.843 -53.854,-20.53 -11.902,-13.092 -17.853,-31.242 -17.853,-54.45 0,-22.018 5.951,-39.97 17.853,-53.855 12.1,-14.282 29.059,-21.423 50.879,-21.423 20.828,0 36.895,7.637 48.202,22.911 10.116,13.687 15.174,31.143 15.174,52.367 v 3.868 c 0,2.777 -1.289,4.166 -3.868,4.166 h -80.931 c -3.174,0 -5.653,0.942 -7.438,2.826 -1.786,1.885 -2.282,4.315 -1.488,7.29 3.57,16.266 14.579,24.398 33.027,24.398 7.141,0 12.992,-1.289 17.555,-3.868 4.562,-2.578 8.48,-6.05 11.753,-10.414 3.273,-4.363 6.149,-6.545 8.628,-6.545 2.48,0 4.91,0.694 7.29,2.082 l 11.307,8.034 c 4.76,3.57 5.653,7.736 2.677,12.497 z m -80.931,-64.864 h 33.623 c 3.57,0 6.248,-1.042 8.033,-3.124 1.785,-2.083 1.885,-4.711 0.298,-7.885 -4.761,-9.72 -12.596,-14.58 -23.506,-14.58 -12.298,0 -21.026,4.959 -26.184,14.877 -1.587,3.174 -1.537,5.753 0.149,7.736 1.686,1.984 4.215,2.976 7.587,2.976 z"
       style="fill-rule:nonzero"
       id="path43" /><path
       d="M 3026.93,1065.95 V 942.173 c 0,-2.976 0.892,-5.356 2.678,-7.141 1.785,-1.786 4.165,-2.678 7.141,-2.678 h 15.174 c 5.554,0 8.827,2.876 9.819,8.628 v 0.893 c 0.198,3.174 0.893,4.761 2.083,4.761 1.19,0 2.678,-0.893 4.463,-2.678 3.967,-4.761 9.075,-8.48 15.323,-11.158 6.249,-2.678 11.356,-4.017 15.324,-4.017 5.752,0 10.017,0.199 12.794,0.595 l 3.57,0.893 c 2.381,0.595 3.571,2.083 3.571,4.463 v 27.969 c 0,2.975 -1.587,4.166 -4.761,3.57 -3.57,-1.19 -9.967,-1.785 -19.191,-1.785 -9.224,0 -16.613,3.224 -22.167,9.67 -5.554,6.447 -8.331,14.729 -8.331,24.845 v 66.947 c 0,2.975 -0.893,5.355 -2.678,7.141 -1.785,1.785 -4.165,2.677 -7.141,2.677 h -17.852 c -2.976,0 -5.356,-0.892 -7.141,-2.677 -1.786,-1.786 -2.678,-4.166 -2.678,-7.141 z"
       style="fill-rule:nonzero"
       id="path45" /><path
       d="m 3175.7,971.627 c 0,2.976 0.992,5.158 2.976,6.546 3.967,2.579 10.761,5.058 20.381,7.439 9.621,2.38 17.406,4.711 23.357,6.992 5.951,2.281 11.307,5.207 16.067,8.777 10.117,8.133 15.175,19.142 15.175,33.027 0,15.671 -6.447,27.275 -19.34,34.813 -10.712,6.347 -23.308,9.521 -37.788,9.521 -24.002,0 -43.639,-6.249 -58.913,-18.745 -2.182,-1.785 -3.273,-3.868 -3.273,-6.249 0,-2.38 0.893,-4.562 2.678,-6.545 l 9.819,-11.009 c 2.38,-2.381 4.86,-3.571 7.438,-3.571 2.579,0 5.058,0.893 7.439,2.678 9.323,7.339 20.431,11.009 33.324,11.009 7.736,0 13.043,-0.942 15.919,-2.827 2.876,-1.884 4.314,-4.711 4.314,-8.48 0,-3.768 -0.744,-6.496 -2.231,-8.182 -1.488,-1.686 -3.968,-3.075 -7.439,-4.166 -3.471,-1.091 -6.992,-1.983 -10.563,-2.677 -3.57,-0.695 -8.132,-1.587 -13.687,-2.678 -5.554,-1.091 -11.058,-2.678 -16.513,-4.761 -5.455,-2.083 -10.265,-4.81 -14.431,-8.182 -8.529,-7.538 -12.794,-18.051 -12.794,-31.54 0,-14.083 5.752,-25.191 17.257,-33.324 10.117,-7.34 23.655,-11.009 40.615,-11.009 16.959,0 31.787,4.463 44.482,13.389 2.182,1.587 3.372,3.571 3.571,5.951 0.198,2.38 -0.496,4.661 -2.083,6.843 l -9.522,12.2 c -1.785,2.578 -3.818,3.868 -6.099,3.868 -2.281,0 -5.009,-1.091 -8.183,-3.273 -6.545,-4.166 -15.174,-6.249 -25.886,-6.249 -10.711,0 -16.067,3.472 -16.067,10.414 z"
       style="fill-rule:nonzero"
       id="path47" /><path
       d="m 3324.17,887.572 c 0,6.447 -2.182,11.951 -6.546,16.513 -4.364,4.563 -9.769,6.844 -16.216,6.844 -6.447,0 -11.901,-2.281 -16.365,-6.844 -4.463,-4.562 -6.694,-10.017 -6.694,-16.364 0,-6.348 2.231,-11.753 6.694,-16.216 4.464,-4.463 9.918,-6.695 16.365,-6.695 6.447,0 11.852,2.182 16.216,6.546 4.364,4.364 6.546,9.769 6.546,16.216 z m -41.358,178.376 V 942.171 c 0,-2.976 0.893,-5.356 2.678,-7.141 1.785,-1.786 4.165,-2.678 7.141,-2.678 h 17.852 c 2.976,0 5.356,0.892 7.141,2.678 1.785,1.785 2.678,4.165 2.678,7.141 v 123.777 c 0,2.975 -0.893,5.355 -2.678,7.141 -1.785,1.785 -4.165,2.677 -7.141,2.677 h -17.852 c -2.976,0 -5.356,-0.892 -7.141,-2.677 -1.785,-1.786 -2.678,-4.166 -2.678,-7.141 z"
       style="fill-rule:nonzero"
       id="path49" /><path
       d="m 3435.15,1077.85 c -5.554,0.794 -11.703,1.19 -18.448,1.19 -6.744,0 -12.893,-0.595 -18.447,-1.785 -5.554,-1.19 -10.216,-3.273 -13.985,-6.248 -7.339,-5.753 -11.009,-16.167 -11.009,-31.242 v -65.459 c 0,-2.975 -0.892,-5.356 -2.678,-7.141 -1.785,-1.785 -4.165,-2.678 -7.141,-2.678 h -7.141 c -2.975,0 -5.355,-0.892 -7.141,-2.678 -1.785,-1.785 -2.677,-4.165 -2.677,-7.141 v -12.496 c 0,-2.976 0.892,-5.356 2.677,-7.141 1.786,-1.786 4.166,-2.678 7.141,-2.678 h 7.141 c 2.976,0 5.356,-0.893 7.141,-2.678 1.786,-1.785 2.678,-4.166 2.678,-7.141 v -30.052 c 0,-2.975 0.893,-5.355 2.678,-7.141 1.785,-1.785 4.166,-2.678 7.141,-2.678 h 17.555 c 2.975,0 5.356,0.893 7.141,2.678 1.785,1.786 2.678,4.166 2.678,7.141 v 30.052 c 0,2.975 0.893,5.356 2.678,7.141 1.785,1.785 4.165,2.678 7.141,2.678 h 19.042 c 2.976,0 5.356,0.892 7.141,2.678 1.786,1.785 2.678,4.165 2.678,7.141 v 12.496 c 0,2.976 -0.892,5.356 -2.678,7.141 -1.785,1.786 -4.165,2.678 -7.141,2.678 h -19.042 c -2.976,0 -5.356,0.893 -7.141,2.678 -1.785,1.785 -2.678,4.166 -2.678,7.141 v 55.64 c 0,6.149 1.537,10.315 4.612,12.497 3.074,2.182 7.141,3.273 12.199,3.273 5.058,0 8.728,-0.397 11.009,-1.19 2.281,-0.794 4.661,-1.736 7.141,-2.827 2.479,-1.091 3.719,0.05 3.719,3.422 v 22.315 c 0,1.984 -0.545,3.819 -1.636,5.505 -1.091,1.686 -2.529,2.727 -4.315,3.124 z"
       style="fill-rule:nonzero"
       id="path51" /><path
       d="m 3519.65,887.572 c 0,6.447 -2.182,11.951 -6.546,16.513 -4.363,4.563 -9.769,6.844 -16.216,6.844 -6.446,0 -11.901,-2.281 -16.364,-6.844 -4.463,-4.562 -6.695,-10.017 -6.695,-16.364 0,-6.348 2.232,-11.753 6.695,-16.216 4.463,-4.463 9.918,-6.695 16.364,-6.695 6.447,0 11.853,2.182 16.216,6.546 4.364,4.364 6.546,9.769 6.546,16.216 z m -41.358,178.376 V 942.171 c 0,-2.976 0.893,-5.356 2.678,-7.141 1.785,-1.786 4.166,-2.678 7.141,-2.678 h 17.852 c 2.976,0 5.356,0.892 7.141,2.678 1.786,1.785 2.678,4.165 2.678,7.141 v 123.777 c 0,2.975 -0.892,5.355 -2.678,7.141 -1.785,1.785 -4.165,2.677 -7.141,2.677 h -17.852 c -2.975,0 -5.356,-0.892 -7.141,-2.677 -1.785,-1.786 -2.678,-4.166 -2.678,-7.141 z"
       style="fill-rule:nonzero"
       id="path53" /><path
       d="m 3677.35,1048.39 c -14.084,20.431 -33.721,30.646 -58.913,30.646 -23.407,0 -41.358,-6.843 -53.855,-20.53 -11.902,-13.092 -17.852,-31.242 -17.852,-54.45 0,-22.018 5.95,-39.97 17.852,-53.855 12.1,-14.282 29.06,-21.423 50.879,-21.423 20.828,0 36.896,7.637 48.202,22.911 10.116,13.687 15.175,31.143 15.175,52.367 v 3.868 c 0,2.777 -1.29,4.166 -3.868,4.166 h -80.931 c -3.174,0 -5.654,0.942 -7.439,2.826 -1.785,1.885 -2.281,4.315 -1.488,7.29 3.571,16.266 14.58,24.398 33.027,24.398 7.141,0 12.993,-1.289 17.555,-3.868 4.563,-2.578 8.48,-6.05 11.753,-10.414 3.273,-4.363 6.149,-6.545 8.629,-6.545 2.479,0 4.909,0.694 7.29,2.082 l 11.306,8.034 c 4.761,3.57 5.653,7.736 2.678,12.497 z m -80.931,-64.864 h 33.622 c 3.57,0 6.248,-1.042 8.034,-3.124 1.785,-2.083 1.884,-4.711 0.297,-7.885 -4.761,-9.72 -12.596,-14.58 -23.506,-14.58 -12.298,0 -21.026,4.959 -26.183,14.877 -1.587,3.174 -1.537,5.753 0.149,7.736 1.686,1.984 4.215,2.976 7.587,2.976 z"
       style="fill-rule:nonzero"
       id="path55" /><path
       d="m 3743.7,971.627 c 0,2.976 0.991,5.158 2.975,6.546 3.967,2.579 10.761,5.058 20.382,7.439 9.62,2.38 17.406,4.711 23.356,6.992 5.951,2.281 11.307,5.207 16.068,8.777 10.116,8.133 15.174,19.142 15.174,33.027 0,15.671 -6.446,27.275 -19.34,34.813 -10.711,6.347 -23.307,9.521 -37.788,9.521 -24.001,0 -43.639,-6.249 -58.913,-18.745 -2.182,-1.785 -3.273,-3.868 -3.273,-6.249 0,-2.38 0.893,-4.562 2.678,-6.545 l 9.819,-11.009 c 2.38,-2.381 4.86,-3.571 7.439,-3.571 2.578,0 5.058,0.893 7.438,2.678 9.323,7.339 20.431,11.009 33.325,11.009 7.736,0 13.042,-0.942 15.918,-2.827 2.876,-1.884 4.314,-4.711 4.314,-8.48 0,-3.768 -0.743,-6.496 -2.231,-8.182 -1.488,-1.686 -3.967,-3.075 -7.439,-4.166 -3.471,-1.091 -6.992,-1.983 -10.562,-2.677 -3.571,-0.695 -8.133,-1.587 -13.687,-2.678 -5.554,-1.091 -11.059,-2.678 -16.514,-4.761 -5.455,-2.083 -10.265,-4.81 -14.43,-8.182 -8.53,-7.538 -12.795,-18.051 -12.795,-31.54 0,-14.083 5.753,-25.191 17.258,-33.324 10.116,-7.34 23.654,-11.009 40.614,-11.009 16.96,0 31.787,4.463 44.482,13.389 2.182,1.587 3.373,3.571 3.571,5.951 0.198,2.38 -0.496,4.661 -2.083,6.843 l -9.521,12.2 c -1.785,2.578 -3.819,3.868 -6.1,3.868 -2.281,0 -5.008,-1.091 -8.182,-3.273 -6.546,-4.166 -15.175,-6.249 -25.886,-6.249 -10.712,0 -16.067,3.472 -16.067,10.414 z"
       style="fill-rule:nonzero"
       id="path57" /><path
       d="m 1263.7,1363.49 v -188.64 c 0,-2.976 0.893,-5.356 2.678,-7.141 1.785,-1.786 4.166,-2.678 7.141,-2.678 h 23.208 c 3.769,0 6.546,1.587 8.331,4.76 l 45.524,78.849 c 2.777,4.364 5.604,6.546 8.48,6.546 2.876,0 5.604,-2.182 8.182,-6.546 l 44.929,-78.849 c 1.785,-3.173 4.562,-4.76 8.331,-4.76 h 23.506 c 2.975,0 5.356,0.892 7.141,2.678 1.785,1.785 2.678,4.165 2.678,7.141 v 188.64 c 0,2.976 -0.893,5.356 -2.678,7.141 -1.785,1.786 -4.166,2.678 -7.141,2.678 h -19.638 c -2.975,0 -5.356,-0.892 -7.141,-2.678 -1.785,-1.785 -2.678,-4.165 -2.678,-7.141 v -94.023 c 0,-12.099 -1.884,-18.149 -5.653,-18.149 -3.372,0 -7.538,4.562 -12.497,13.686 l -23.803,42.846 c -1.785,3.372 -4.562,5.058 -8.331,5.058 h -11.307 c -3.768,0 -6.546,-1.686 -8.331,-5.058 l -23.803,-42.846 c -4.959,-9.124 -9.125,-13.686 -12.497,-13.686 -3.769,0 -5.653,6.05 -5.653,18.149 v 94.023 c 0,2.976 -0.893,5.356 -2.678,7.141 -1.785,1.786 -4.165,2.678 -7.141,2.678 h -19.34 c -2.975,0 -5.356,-0.892 -7.141,-2.678 -1.785,-1.785 -2.678,-4.165 -2.678,-7.141 z"
       style="fill-rule:nonzero"
       id="path59" /><path
       d="m 1613.9,1345.93 c -14.084,20.432 -33.722,30.647 -58.913,30.647 -23.407,0 -41.359,-6.843 -53.855,-20.53 -11.902,-13.092 -17.853,-31.242 -17.853,-54.45 0,-22.018 5.951,-39.97 17.853,-53.855 12.1,-14.282 29.059,-21.423 50.879,-21.423 20.828,0 36.895,7.637 48.202,22.911 10.116,13.687 15.174,31.142 15.174,52.367 v 3.868 c 0,2.777 -1.289,4.166 -3.868,4.166 h -80.931 c -3.174,0 -5.653,0.942 -7.438,2.826 -1.786,1.885 -2.281,4.314 -1.488,7.29 3.57,16.265 14.579,24.398 33.027,24.398 7.141,0 12.993,-1.289 17.555,-3.868 4.562,-2.578 8.48,-6.05 11.753,-10.414 3.273,-4.364 6.149,-6.546 8.628,-6.546 2.48,0 4.91,0.695 7.29,2.083 l 11.307,8.034 c 4.76,3.57 5.653,7.736 2.678,12.496 z m -80.931,-64.863 h 33.622 c 3.57,0 6.248,-1.042 8.033,-3.125 1.785,-2.082 1.885,-4.711 0.298,-7.884 -4.761,-9.72 -12.596,-14.58 -23.506,-14.58 -12.298,0 -21.026,4.959 -26.184,14.877 -1.586,3.174 -1.537,5.753 0.149,7.736 1.686,1.984 4.215,2.976 7.588,2.976 z"
       style="fill-rule:nonzero"
       id="path61" /><path
       d="m 1721.91,1375.39 c -5.554,0.793 -11.703,1.19 -18.448,1.19 -6.744,0 -12.893,-0.595 -18.447,-1.785 -5.554,-1.19 -10.216,-3.273 -13.985,-6.248 -7.339,-5.753 -11.009,-16.167 -11.009,-31.242 v -65.459 c 0,-2.976 -0.892,-5.356 -2.677,-7.141 -1.786,-1.785 -4.166,-2.678 -7.141,-2.678 h -7.141 c -2.976,0 -5.356,-0.893 -7.141,-2.678 -1.786,-1.785 -2.678,-4.165 -2.678,-7.141 v -12.497 c 0,-2.975 0.892,-5.355 2.678,-7.141 1.785,-1.785 4.165,-2.677 7.141,-2.677 h 7.141 c 2.975,0 5.355,-0.893 7.141,-2.678 1.785,-1.786 2.677,-4.166 2.677,-7.141 v -30.052 c 0,-2.975 0.893,-5.356 2.678,-7.141 1.786,-1.785 4.166,-2.678 7.141,-2.678 h 17.555 c 2.976,0 5.356,0.893 7.141,2.678 1.785,1.785 2.678,4.166 2.678,7.141 v 30.052 c 0,2.975 0.893,5.355 2.678,7.141 1.785,1.785 4.165,2.678 7.141,2.678 h 19.043 c 2.975,0 5.355,0.892 7.14,2.677 1.786,1.786 2.678,4.166 2.678,7.141 v 12.497 c 0,2.976 -0.892,5.356 -2.678,7.141 -1.785,1.785 -4.165,2.678 -7.14,2.678 h -19.043 c -2.976,0 -5.356,0.893 -7.141,2.678 -1.785,1.785 -2.678,4.165 -2.678,7.141 v 55.64 c 0,6.149 1.537,10.315 4.612,12.497 3.075,2.182 7.141,3.273 12.199,3.273 5.058,0 8.728,-0.397 11.009,-1.191 2.281,-0.793 4.662,-1.735 7.141,-2.826 2.48,-1.091 3.719,0.049 3.719,3.422 v 22.315 c 0,1.984 -0.545,3.819 -1.636,5.505 -1.091,1.686 -2.529,2.727 -4.314,3.124 z"
       style="fill-rule:nonzero"
       id="path63" /><path
       d="m 1809.69,1375.09 c -15.273,0.794 -28.266,-2.578 -38.977,-10.116 -10.513,-7.538 -15.77,-18.447 -15.77,-32.729 0,-15.076 6.843,-27.176 20.53,-36.3 12.299,-8.332 26.283,-12.695 41.954,-13.092 6.545,-0.595 13.29,0.496 20.232,3.273 2.976,1.388 4.463,0.496 4.463,-2.678 v -4.761 c 0,-8.331 -1.785,-13.736 -5.355,-16.216 -3.571,-2.479 -8.728,-3.719 -15.472,-3.719 -13.489,0 -26.977,3.571 -40.466,10.711 -1.984,1.191 -4.314,1.786 -6.992,1.786 -2.678,0 -5.108,-1.786 -7.29,-5.356 l -6.843,-11.604 c -1.587,-2.38 -2.034,-4.761 -1.339,-7.141 0.694,-2.38 2.33,-4.265 4.909,-5.653 19.043,-10.117 38.234,-15.175 57.574,-15.175 19.34,0 33.672,3.868 42.995,11.604 9.323,7.736 13.984,21.324 13.984,40.763 v 62.484 c 0,4.165 0.843,6.496 2.529,6.992 1.686,0.496 3.918,0.446 6.695,-0.149 4.166,-0.992 6.248,0.595 6.248,4.761 v 10.116 c 0,5.554 -3.967,8.927 -11.901,10.117 -4.364,1.388 -9.67,2.082 -15.919,2.082 -6.248,0 -11.356,-1.19 -15.323,-3.57 -3.174,-2.38 -6.348,-3.571 -9.521,-3.571 -3.174,0 -5.852,0.496 -8.034,1.488 -6.546,3.174 -14.183,5.058 -22.911,5.653 z m -18.745,-42.548 c 0.992,7.736 8.133,11.208 21.423,10.414 8.331,-0.595 15.572,-2.678 21.721,-6.248 6.149,-3.174 9.025,-7.488 8.628,-12.943 -0.396,-5.455 -2.578,-8.877 -6.545,-10.265 -3.968,-1.389 -9.819,-1.934 -17.555,-1.637 -7.736,0.298 -14.381,2.628 -19.936,6.992 -5.355,4.563 -7.934,9.125 -7.736,13.687 z"
       style="fill-rule:nonzero"
       id="path65" /><path
       d="m 1952.8,1367.06 -46.417,-124.075 c -1.587,-3.967 -1.537,-7.141 0.149,-9.521 1.686,-2.38 4.612,-3.57 8.777,-3.57 h 17.555 c 4.563,0 7.637,2.182 9.224,6.545 l 22.018,63.377 c 2.777,7.934 5.802,11.901 9.075,11.901 3.273,0 6.298,-3.967 9.075,-11.901 l 22.316,-63.377 c 1.587,-4.363 4.661,-6.545 9.223,-6.545 h 15.77 c 3.967,0 6.844,1.19 8.629,3.57 1.785,2.38 1.884,5.554 0.297,9.521 l -44.928,124.075 c -1.786,4.165 -4.86,6.248 -9.224,6.248 h -22.316 c -4.562,0 -7.637,-2.083 -9.223,-6.248 z"
       style="fill-rule:nonzero"
       id="path67" /><path
       d="m 2182.8,1345.93 c -14.084,20.432 -33.722,30.647 -58.913,30.647 -23.407,0 -41.359,-6.843 -53.855,-20.53 -11.902,-13.092 -17.853,-31.242 -17.853,-54.45 0,-22.018 5.951,-39.97 17.853,-53.855 12.1,-14.282 29.059,-21.423 50.879,-21.423 20.828,0 36.895,7.637 48.202,22.911 10.116,13.687 15.174,31.142 15.174,52.367 v 3.868 c 0,2.777 -1.289,4.166 -3.868,4.166 h -80.931 c -3.174,0 -5.653,0.942 -7.438,2.826 -1.786,1.885 -2.281,4.314 -1.488,7.29 3.57,16.265 14.579,24.398 33.027,24.398 7.141,0 12.993,-1.289 17.555,-3.868 4.562,-2.578 8.48,-6.05 11.753,-10.414 3.273,-4.364 6.149,-6.546 8.628,-6.546 2.48,0 4.91,0.695 7.29,2.083 l 11.307,8.034 c 4.76,3.57 5.653,7.736 2.678,12.496 z m -80.931,-64.863 h 33.622 c 3.57,0 6.248,-1.042 8.033,-3.125 1.785,-2.082 1.885,-4.711 0.298,-7.884 -4.761,-9.72 -12.596,-14.58 -23.506,-14.58 -12.298,0 -21.026,4.959 -26.184,14.877 -1.586,3.174 -1.537,5.753 0.149,7.736 1.686,1.984 4.215,2.976 7.588,2.976 z"
       style="fill-rule:nonzero"
       id="path69" /><path
       d="m 2214.34,1363.49 v -123.777 c 0,-2.975 0.893,-5.355 2.678,-7.141 1.785,-1.785 4.165,-2.677 7.141,-2.677 h 15.174 c 5.554,0 8.827,2.876 9.819,8.628 v 0.893 c 0.199,3.174 0.893,4.761 2.083,4.761 1.19,0 2.678,-0.893 4.463,-2.678 3.967,-4.761 9.075,-8.48 15.323,-11.158 6.249,-2.678 11.357,-4.017 15.324,-4.017 5.752,0 10.017,0.198 12.794,0.595 l 3.571,0.893 c 2.38,0.595 3.57,2.083 3.57,4.463 v 27.969 c 0,2.975 -1.587,4.165 -4.761,3.57 -3.57,-1.19 -9.967,-1.785 -19.191,-1.785 -9.224,0 -16.613,3.223 -22.167,9.67 -5.554,6.447 -8.331,14.728 -8.331,24.845 v 66.946 c 0,2.976 -0.893,5.356 -2.678,7.141 -1.785,1.786 -4.165,2.678 -7.141,2.678 h -17.852 c -2.976,0 -5.356,-0.892 -7.141,-2.678 -1.785,-1.785 -2.678,-4.165 -2.678,-7.141 z"
       style="fill-rule:nonzero"
       id="path71" /><path
       d="m 2363.11,1269.17 c 0,2.975 0.992,5.157 2.976,6.546 3.967,2.579 10.761,5.058 20.381,7.438 9.621,2.381 17.406,4.711 23.357,6.993 5.951,2.281 11.307,5.207 16.067,8.777 10.117,8.133 15.175,19.142 15.175,33.027 0,15.671 -6.447,27.275 -19.34,34.812 -10.712,6.348 -23.308,9.522 -37.788,9.522 -24.001,0 -43.639,-6.249 -58.913,-18.745 -2.182,-1.786 -3.273,-3.868 -3.273,-6.249 0,-2.38 0.893,-4.562 2.678,-6.546 l 9.819,-11.009 c 2.38,-2.38 4.86,-3.57 7.438,-3.57 2.579,0 5.059,0.892 7.439,2.678 9.323,7.339 20.431,11.009 33.324,11.009 7.737,0 13.043,-0.943 15.919,-2.827 2.876,-1.884 4.314,-4.711 4.314,-8.48 0,-3.769 -0.744,-6.496 -2.231,-8.182 -1.488,-1.686 -3.968,-3.075 -7.439,-4.166 -3.471,-1.091 -6.992,-1.983 -10.563,-2.678 -3.57,-0.694 -8.132,-1.587 -13.686,-2.678 -5.554,-1.091 -11.059,-2.677 -16.514,-4.76 -5.455,-2.083 -10.265,-4.81 -14.431,-8.183 -8.529,-7.537 -12.794,-18.05 -12.794,-31.539 0,-14.083 5.753,-25.192 17.257,-33.324 10.117,-7.34 23.655,-11.009 40.615,-11.009 16.96,0 31.787,4.463 44.482,13.389 2.182,1.587 3.372,3.57 3.571,5.951 0.198,2.38 -0.496,4.661 -2.083,6.843 l -9.521,12.199 c -1.786,2.579 -3.819,3.868 -6.1,3.868 -2.281,0 -5.009,-1.091 -8.182,-3.273 -6.546,-4.165 -15.175,-6.248 -25.886,-6.248 -10.712,0 -16.068,3.471 -16.068,10.414 z"
       style="fill-rule:nonzero"
       id="path73" /><path
       d="m 2588.95,1345.93 c -14.084,20.432 -33.722,30.647 -58.913,30.647 -23.407,0 -41.358,-6.843 -53.855,-20.53 -11.902,-13.092 -17.853,-31.242 -17.853,-54.45 0,-22.018 5.951,-39.97 17.853,-53.855 12.1,-14.282 29.06,-21.423 50.879,-21.423 20.828,0 36.895,7.637 48.202,22.911 10.116,13.687 15.174,31.142 15.174,52.367 v 3.868 c 0,2.777 -1.289,4.166 -3.868,4.166 h -80.931 c -3.173,0 -5.653,0.942 -7.438,2.826 -1.785,1.885 -2.281,4.314 -1.488,7.29 3.571,16.265 14.58,24.398 33.027,24.398 7.141,0 12.993,-1.289 17.555,-3.868 4.562,-2.578 8.48,-6.05 11.753,-10.414 3.273,-4.364 6.149,-6.546 8.629,-6.546 2.479,0 4.909,0.695 7.289,2.083 l 11.307,8.034 c 4.761,3.57 5.653,7.736 2.678,12.496 z m -80.931,-64.863 h 33.622 c 3.57,0 6.248,-1.042 8.033,-3.125 1.786,-2.082 1.885,-4.711 0.298,-7.884 -4.761,-9.72 -12.596,-14.58 -23.506,-14.58 -12.298,0 -21.026,4.959 -26.183,14.877 -1.587,3.174 -1.538,5.753 0.148,7.736 1.686,1.984 4.216,2.976 7.588,2.976 z"
       style="fill-rule:nonzero"
       id="path75" /><path
       d="m 2693.98,1360.21 70.814,-188.938 c 1.587,-4.166 4.662,-6.248 9.224,-6.248 h 20.53 c 4.563,0 7.637,2.082 9.224,6.248 l 70.815,188.938 c 1.587,3.968 1.537,7.141 -0.149,9.522 -1.686,2.38 -4.612,3.57 -8.777,3.57 h -22.911 c -4.562,0 -7.538,-2.182 -8.926,-6.546 l -9.819,-28.266 c -1.389,-4.364 -4.364,-6.546 -8.926,-6.546 h -62.781 c -4.563,0 -7.538,2.182 -8.927,6.546 l -9.818,28.266 c -1.389,4.364 -4.364,6.546 -8.927,6.546 h -21.72 c -4.166,0 -7.091,-1.19 -8.778,-3.57 -1.686,-2.381 -1.735,-5.554 -0.148,-9.522 z m 77.658,-63.971 h 24.696 c 3.967,0 6.794,-1.14 8.48,-3.422 1.686,-2.281 1.834,-5.405 0.446,-9.372 l -12.199,-36.003 c -2.777,-8.132 -5.753,-12.199 -8.926,-12.199 -3.174,0 -6.249,4.067 -9.224,12.199 l -12.497,36.003 c -1.388,3.967 -1.24,7.091 0.446,9.372 1.686,2.282 4.612,3.422 8.778,3.422 z"
       style="fill-rule:nonzero"
       id="path77" /><path
       d="m 2899.28,1363.49 v -191.913 c 0,-2.976 0.892,-5.356 2.678,-7.141 1.785,-1.786 4.165,-2.678 7.141,-2.678 h 17.852 c 2.976,0 5.356,0.892 7.141,2.678 1.785,1.785 2.678,4.165 2.678,7.141 v 191.913 c 0,2.976 -0.893,5.356 -2.678,7.141 -1.785,1.786 -4.165,2.678 -7.141,2.678 h -17.852 c -2.976,0 -5.356,-0.892 -7.141,-2.678 -1.786,-1.785 -2.678,-4.165 -2.678,-7.141 z"
       style="fill-rule:nonzero"
       id="path79" /><path
       d="m 2971.29,1363.49 v -191.913 c 0,-2.976 0.892,-5.356 2.678,-7.141 1.785,-1.786 4.165,-2.678 7.141,-2.678 h 17.852 c 2.975,0 5.356,0.892 7.141,2.678 1.785,1.785 2.678,4.165 2.678,7.141 v 191.913 c 0,2.976 -0.893,5.356 -2.678,7.141 -1.785,1.786 -4.166,2.678 -7.141,2.678 h -17.852 c -2.976,0 -5.356,-0.892 -7.141,-2.678 -1.786,-1.785 -2.678,-4.165 -2.678,-7.141 z"
       style="fill-rule:nonzero"
       id="path81" /><path
       d="m 3089.11,1185.11 c 0,6.446 -2.182,11.951 -6.546,16.513 -4.364,4.562 -9.769,6.844 -16.216,6.844 -6.447,0 -11.902,-2.282 -16.365,-6.844 -4.463,-4.562 -6.694,-10.017 -6.694,-16.365 0,-6.347 2.231,-11.752 6.694,-16.216 4.463,-4.463 9.918,-6.694 16.365,-6.694 6.447,0 11.852,2.182 16.216,6.546 4.364,4.364 6.546,9.769 6.546,16.216 z m -41.358,178.375 v -123.777 c 0,-2.975 0.892,-5.355 2.678,-7.141 1.785,-1.785 4.165,-2.677 7.141,-2.677 h 17.852 c 2.975,0 5.356,0.892 7.141,2.677 1.785,1.786 2.678,4.166 2.678,7.141 v 123.777 c 0,2.976 -0.893,5.356 -2.678,7.141 -1.785,1.786 -4.166,2.678 -7.141,2.678 h -17.852 c -2.976,0 -5.356,-0.892 -7.141,-2.678 -1.786,-1.785 -2.678,-4.165 -2.678,-7.141 z"
       style="fill-rule:nonzero"
       id="path83" /><path
       d="m 3172.72,1375.09 c -15.274,0.794 -28.267,-2.578 -38.978,-10.116 -10.513,-7.538 -15.77,-18.447 -15.77,-32.729 0,-15.076 6.844,-27.176 20.531,-36.3 12.298,-8.332 26.282,-12.695 41.953,-13.092 6.546,-0.595 13.29,0.496 20.233,3.273 2.975,1.388 4.463,0.496 4.463,-2.678 v -4.761 c 0,-8.331 -1.785,-13.736 -5.356,-16.216 -3.57,-2.479 -8.728,-3.719 -15.472,-3.719 -13.489,0 -26.977,3.571 -40.466,10.711 -1.983,1.191 -4.314,1.786 -6.992,1.786 -2.678,0 -5.108,-1.786 -7.29,-5.356 l -6.843,-11.604 c -1.587,-2.38 -2.033,-4.761 -1.339,-7.141 0.694,-2.38 2.331,-4.265 4.909,-5.653 19.043,-10.117 38.234,-15.175 57.575,-15.175 19.34,0 33.671,3.868 42.994,11.604 9.323,7.736 13.985,21.324 13.985,40.763 v 62.484 c 0,4.165 0.843,6.496 2.529,6.992 1.686,0.496 3.917,0.446 6.694,-0.149 4.166,-0.992 6.249,0.595 6.249,4.761 v 10.116 c 0,5.554 -3.967,8.927 -11.902,10.117 -4.364,1.388 -9.67,2.082 -15.918,2.082 -6.249,0 -11.356,-1.19 -15.324,-3.57 -3.173,-2.38 -6.347,-3.571 -9.521,-3.571 -3.174,0 -5.852,0.496 -8.034,1.488 -6.545,3.174 -14.182,5.058 -22.91,5.653 z m -18.745,-42.548 c 0.992,7.736 8.133,11.208 21.423,10.414 8.331,-0.595 15.571,-2.678 21.72,-6.248 6.149,-3.174 9.026,-7.488 8.629,-12.943 -0.397,-5.455 -2.579,-8.877 -6.546,-10.265 -3.967,-1.389 -9.819,-1.934 -17.555,-1.637 -7.736,0.298 -14.381,2.628 -19.935,6.992 -5.356,4.563 -7.935,9.125 -7.736,13.687 z"
       style="fill-rule:nonzero"
       id="path85" /><path
       d="m 3282.51,1363.49 v -123.777 c 0,-2.975 0.893,-5.355 2.678,-7.141 1.785,-1.785 4.166,-2.677 7.141,-2.677 h 15.472 c 2.381,0 4.414,0.743 6.1,2.231 1.686,1.488 2.727,3.521 3.124,6.1 0.397,2.578 1.19,3.868 2.38,3.868 1.191,0 3.373,-1.488 6.546,-4.463 8.133,-7.538 17.258,-11.307 27.374,-11.307 10.116,0 18.348,1.438 24.696,4.314 6.347,2.877 11.604,6.794 15.77,11.753 8.132,9.918 12.199,23.407 12.199,40.466 v 80.633 c 0,2.976 -0.893,5.356 -2.678,7.141 -1.785,1.786 -4.166,2.678 -7.141,2.678 h -17.853 c -2.975,0 -5.355,-0.892 -7.14,-2.678 -1.786,-1.785 -2.678,-4.165 -2.678,-7.141 v -71.409 c 0,-14.282 -3.868,-23.903 -11.604,-28.862 -2.778,-1.983 -6.546,-2.975 -11.307,-2.975 -4.761,0 -8.777,0.992 -12.05,2.975 -3.273,1.984 -5.902,4.562 -7.885,7.736 -3.769,5.951 -5.654,13.687 -5.654,23.208 v 69.327 c 0,2.976 -0.892,5.356 -2.677,7.141 -1.786,1.786 -4.166,2.678 -7.141,2.678 h -17.853 c -2.975,0 -5.356,-0.892 -7.141,-2.678 -1.785,-1.785 -2.678,-4.165 -2.678,-7.141 z"
       style="fill-rule:nonzero"
       id="path87" /><path
       d="m 3554.47,1355.16 c -12.1,14.282 -29.556,21.423 -52.368,21.423 -10.116,0 -19.538,-1.983 -28.266,-5.951 -8.728,-3.967 -16.067,-9.323 -22.018,-16.067 -12.298,-13.885 -18.447,-31.539 -18.447,-52.962 0,-21.621 6.248,-39.474 18.745,-53.557 13.091,-14.481 30.15,-21.721 51.177,-21.721 9.521,0 18.844,1.686 27.968,5.058 9.125,3.372 16.861,8.827 23.209,16.365 1.785,1.984 2.479,4.166 2.082,6.546 -0.396,2.38 -1.686,4.463 -3.868,6.248 l -12.794,9.522 c -2.182,1.586 -4.612,2.38 -7.29,2.38 -2.677,0 -5.603,-1.587 -8.777,-4.761 -4.959,-4.959 -11.108,-7.438 -18.448,-7.438 -7.339,0 -12.992,1.19 -16.959,3.57 -3.968,2.381 -7.241,5.554 -9.819,9.522 -4.761,7.141 -7.141,16.563 -7.141,28.266 0,18.249 5.653,30.746 16.96,37.49 4.165,2.38 9.769,3.571 16.811,3.571 7.041,0 13.339,-2.579 18.893,-7.737 3.174,-2.777 6.05,-4.165 8.629,-4.165 2.579,0 4.86,0.694 6.844,2.083 l 13.091,9.521 c 2.182,1.785 3.472,3.868 3.868,6.248 0.397,2.381 -0.297,4.563 -2.082,6.546 z"
       style="fill-rule:nonzero"
       id="path89" /><path
       d="m 3704.43,1345.93 c -14.083,20.432 -33.721,30.647 -58.913,30.647 -23.406,0 -41.358,-6.843 -53.855,-20.53 -11.901,-13.092 -17.852,-31.242 -17.852,-54.45 0,-22.018 5.951,-39.97 17.852,-53.855 12.1,-14.282 29.06,-21.423 50.88,-21.423 20.828,0 36.895,7.637 48.201,22.911 10.117,13.687 15.175,31.142 15.175,52.367 v 3.868 c 0,2.777 -1.289,4.166 -3.868,4.166 h -80.931 c -3.174,0 -5.654,0.942 -7.439,2.826 -1.785,1.885 -2.281,4.314 -1.487,7.29 3.57,16.265 14.579,24.398 33.027,24.398 7.141,0 12.992,-1.289 17.554,-3.868 4.563,-2.578 8.48,-6.05 11.753,-10.414 3.273,-4.364 6.15,-6.546 8.629,-6.546 2.48,0 4.909,0.695 7.29,2.083 l 11.306,8.034 c 4.761,3.57 5.654,7.736 2.678,12.496 z m -80.931,-64.863 h 33.622 c 3.571,0 6.249,-1.042 8.034,-3.125 1.785,-2.082 1.884,-4.711 0.297,-7.884 -4.76,-9.72 -12.596,-14.58 -23.505,-14.58 -12.299,0 -21.027,4.959 -26.184,14.877 -1.587,3.174 -1.537,5.753 0.149,7.736 1.686,1.984 4.215,2.976 7.587,2.976 z"
       style="fill-rule:nonzero"
       id="path91" /></g></svg>
