<?xml version="1.0" encoding="UTF-8"?>
<svg xmlns="http://www.w3.org/2000/svg" version="1.1" xmlns:cc="http://creativecommons.org/ns#" xmlns:dc="http://purl.org/dc/elements/1.1/" xmlns:inkscape="http://www.inkscape.org/namespaces/inkscape" xmlns:rdf="http://www.w3.org/1999/02/22-rdf-syntax-ns#" xmlns:serif="http://www.serif.com/" xmlns:sodipodi="http://sodipodi.sourceforge.net/DTD/sodipodi-0.dtd" xmlns:svg="http://www.w3.org/2000/svg" viewBox="0 0 3640 955">
  <!-- Generator: Adobe Illustrator 29.1.0, SVG Export Plug-In . SVG Version: 2.1.0 Build 142)  -->
  <defs>
    <style>
      .st0 {
        fill: none;
        stroke: #fff;
        stroke-linecap: square;
        stroke-linejoin: round;
        stroke-width: 36.5px;
      }

      .st1, .st2 {
        fill: #fff;
      }

      .st2 {
        fill-rule: evenodd;
      }

      .st3 {
        fill: #d2002d;
      }
    </style>
  </defs>
  <g id="svg94" inkscape:version="1.0.2-2 (e86c870879, 2021-01-15)" sodipodi:docname="NUMALogo_Rectangle_Black_alpha_cut.svg">
    <sodipodi:namedview id="namedview96" bordercolor="#666666" borderopacity="1" fit-margin-bottom="20" fit-margin-left="20" fit-margin-right="20" fit-margin-top="20" gridtolerance="10" guidetolerance="10" inkscape:current-layer="svg94" inkscape:cx="3349.3414" inkscape:cy="173.86554" inkscape:pageopacity="0" inkscape:pageshadow="2" inkscape:window-height="1017" inkscape:window-maximized="1" inkscape:window-width="1920" inkscape:window-x="-8" inkscape:window-y="-1" inkscape:zoom="0.12453918" lock-margins="true" objecttolerance="10" pagecolor="#ffffff" showgrid="false"/>
    <g id="LOGO">
      <circle id="BASE" class="st3" cx="477.4" cy="477.5" r="457.9"/>
      <g id="M">
        <path id="_1" class="st2" d="M256.2,590.6c35,5,59.4,37.5,54.4,72.5-5,35-37.5,59.4-72.5,54.4-35-5-59.4-37.5-54.4-72.5s37.5-59.4,72.5-54.4Z" serif:id="1"/>
        <path id="_1to2" class="st0" d="M256.6,590.9l41.2-212.5" serif:id="1to2"/>
        <path id="_2" class="st2" d="M333.1,262.3c32,9.7,50.2,43.6,40.5,75.6-9.7,32-43.6,50.2-75.6,40.5-32-9.7-50.2-43.6-40.5-75.6,9.7-32,43.6-50.2,75.6-40.5h0Z" serif:id="2"/>
        <path id="_2to3" class="st0" d="M352.6,348.3l76.3,61.3" serif:id="2to3"/>
        <circle id="_3" class="st1" cx="482.2" cy="437.2" r="64.1" serif:id="3"/>
        <path id="_3to4" class="st0" d="M609.6,287.7l-94.2,112.2" serif:id="3to4"/>
        <circle id="_4" class="st1" cx="636.7" cy="244.4" r="60.7" serif:id="4"/>
        <path id="_4to5" class="st0" d="M702.9,548.6l-54-254.8" serif:id="4to5"/>
        <circle id="_5" class="st1" cx="716.1" cy="599.3" r="64.1" serif:id="5"/>
      </g>
      <g id="Word">
        <path id="path13" class="st1" d="M248.9,743.8h91.7v71.7h-12.3v-59.9h-67.1v59.9h-12.3v-71.7Z"/>
        <path id="path15" class="st1" d="M442,743.8h12.3v71.7h-91.7v-71.7h12.3v59.7h67.1v-59.7Z"/>
        <path id="path17" class="st1" d="M476.4,743.8h116.6v71.3h-12.3v-59.4h-40.1v58.3h-11.8v-58.3h-40.3v59.4h-12.1v-71.3Z"/>
        <path id="path19" class="st1" d="M613.8,743.8h91.4v71.7h-91.7v-37.5h79.4v-22.4h-79.1v-11.8ZM625.8,803.9h67.1v-14.1h-67.1v14.1Z"/>
      </g>
    </g>
    <g id="black">
      <path id="path23" class="st1" d="M1062.5,418.4v-188.6c0-3,.9-5.4,2.7-7.1s4.2-2.7,7.1-2.7h23.8c3.4,0,6.1,1.5,8,4.5l72.3,109.5c4.8,7.1,8.7,10.7,11.9,10.7s6-5.4,6-16.1v-98.8c0-3,.9-5.4,2.7-7.1,1.8-1.8,4.2-2.7,7.1-2.7h19.3c3,0,5.4.9,7.1,2.7,1.8,1.8,2.7,4.2,2.7,7.1v188.6c0,3-.9,5.4-2.7,7.1-1.8,1.8-4.2,2.7-7.1,2.7h-21.7c-3.6,0-6.3-1.5-8.3-4.5l-74.4-114c-4.8-7.1-8.7-10.7-11.9-10.7s-6,5.4-6,16.1v103.2c0,3-.9,5.4-2.7,7.1-1.8,1.8-4.2,2.7-7.1,2.7h-19c-3,0-5.4-.9-7.1-2.7-1.8-1.8-2.7-4.2-2.7-7.1h0Z"/>
      <path id="path25" class="st1" d="M1316,240.1c0,6.4-2.2,12-6.5,16.5-4.4,4.6-9.8,6.8-16.2,6.8s-11.9-2.3-16.4-6.8c-4.5-4.6-6.7-10-6.7-16.4s2.2-11.8,6.7-16.2,9.9-6.7,16.4-6.7,11.9,2.2,16.2,6.5c4.4,4.4,6.5,9.8,6.5,16.2ZM1274.6,418.4v-123.8c0-3,.9-5.4,2.7-7.1,1.8-1.8,4.2-2.7,7.1-2.7h17.9c3,0,5.4.9,7.1,2.7,1.8,1.8,2.7,4.2,2.7,7.1v123.8c0,3-.9,5.4-2.7,7.1-1.8,1.8-4.2,2.7-7.1,2.7h-17.9c-3,0-5.4-.9-7.1-2.7s-2.7-4.2-2.7-7.1Z"/>
      <path id="path27" class="st1" d="M1350.5,476.2v-181.5c0-3,.9-5.4,2.7-7.1,1.8-1.8,4.2-2.7,7.1-2.7h15.8c4.6,0,7.1,2.1,7.7,6.4.6,4.3,2.5,5,5.7,2.2,9.3-8.1,20-12.2,32-12.2s22.4,1.9,31.1,5.8,16,9.1,21.7,15.6c11.9,13.5,17.9,31.4,17.9,53.9s-6.1,40.2-18.4,53.9c-12.5,14.1-29.7,21.1-51.5,21.1s-12.5-.9-17.4-2.8c-4.9-1.9-8.1-2.8-9.7-2.8-4.8,0-7.1,3.7-7.1,11v39.3c0,3-.9,5.4-2.7,7.1-1.8,1.8-4.2,2.7-7.1,2.7h-17.9c-3,0-5.4-.9-7.1-2.7s-2.7-4.2-2.7-7.1h0ZM1420.7,397.6c10.9,0,19.4-4.3,25.6-12.8,5.4-7.3,8-16.8,8-28.3s-2.7-21.1-8-28.9c-5.8-8.3-14.3-12.5-25.6-12.5s-19.6,4.2-25.6,12.5c-5.2,7.7-7.7,17.4-7.7,28.9s2.6,20.7,7.7,28.3c6,8.5,14.5,12.8,25.6,12.8Z"/>
      <path id="path29" class="st1" d="M1519.2,476.2v-181.5c0-3,.9-5.4,2.7-7.1,1.8-1.8,4.2-2.7,7.1-2.7h15.8c4.6,0,7.1,2.1,7.7,6.4.6,4.3,2.5,5,5.7,2.2,9.3-8.1,20-12.2,32-12.2s22.4,1.9,31.1,5.8,16,9.1,21.7,15.6c11.9,13.5,17.9,31.4,17.9,53.9s-6.2,40.2-18.4,53.9c-12.5,14.1-29.7,21.1-51.5,21.1s-12.5-.9-17.4-2.8c-4.9-1.9-8.1-2.8-9.7-2.8-4.8,0-7.1,3.7-7.1,11v39.3c0,3-.9,5.4-2.7,7.1-1.8,1.8-4.2,2.7-7.1,2.7h-17.9c-3,0-5.4-.9-7.1-2.7-1.8-1.8-2.7-4.2-2.7-7.1h0ZM1589.4,397.6c10.9,0,19.4-4.3,25.6-12.8,5.4-7.3,8-16.8,8-28.3s-2.7-21.1-8-28.9c-5.8-8.3-14.3-12.5-25.6-12.5s-19.6,4.2-25.6,12.5c-5.2,7.7-7.7,17.4-7.7,28.9s2.6,20.7,7.7,28.3c6,8.5,14.5,12.8,25.6,12.8Z"/>
      <path id="path31" class="st1" d="M1750.4,431.5c-10.9,0-20.7-2-29.5-5.9-8.7-4-16.1-9.3-22-16.1-12.3-13.9-18.4-31.5-18.4-53s6.2-39.5,18.7-53.6c13.1-14.5,30.2-21.7,51.2-21.7s38.9,7.3,51.8,22c12.1,13.7,18.2,31.4,18.2,53.3s-6.2,39.5-18.7,53.6c-12.9,14.3-30,21.4-51.2,21.4ZM1735.5,394.1c4.2,2.4,9.2,3.6,15,3.6s10.8-1.2,14.9-3.6c4.1-2.4,7.4-5.5,10-9.2,5-7.5,7.4-17,7.4-28.3,0-18.6-5.8-31.2-17.3-37.8-4.2-2.4-9.2-3.6-15.2-3.6-10.7,0-18.9,4.4-24.7,13.1-4.8,7.1-7.1,16.6-7.1,28.3,0,18.2,5.7,30.7,17,37.5Z"/>
      <path id="path33" class="st1" d="M1847.7,418.4v-123.8c0-3,.9-5.4,2.7-7.1,1.8-1.8,4.2-2.7,7.1-2.7h15.5c2.4,0,4.4.7,6.1,2.2,1.7,1.5,2.7,3.5,3.1,6.1s1.2,3.9,2.4,3.9,3.4-1.5,6.5-4.5c8.1-7.5,17.3-11.3,27.4-11.3s18.3,1.4,24.7,4.3c6.3,2.9,11.6,6.8,15.8,11.8,8.1,9.9,12.2,23.4,12.2,40.5v80.6c0,3-.9,5.4-2.7,7.1-1.8,1.8-4.2,2.7-7.1,2.7h-17.9c-3,0-5.4-.9-7.1-2.7-1.8-1.8-2.7-4.2-2.7-7.1v-71.4c0-14.3-3.9-23.9-11.6-28.9-2.8-2-6.5-3-11.3-3s-8.8,1-12.1,3c-3.3,2-5.9,4.6-7.9,7.7-3.8,6-5.7,13.7-5.7,23.2v69.3c0,3-.9,5.4-2.7,7.1-1.8,1.8-4.2,2.7-7.1,2.7h-17.9c-3,0-5.4-.9-7.1-2.7-1.8-1.8-2.7-4.2-2.7-7.1h0Z"/>
      <path id="path35" class="st1" d="M2251.4,350c0,54.7-27,82.1-80.9,82.1s-81.2-27.4-81.2-82.1v-120.2c0-3,.9-5.4,2.7-7.1s4.2-2.7,7.1-2.7h19.3c3,0,5.4.9,7.1,2.7,1.8,1.8,2.7,4.2,2.7,7.1v118.1c0,31.1,14.1,46.7,42.3,46.7s26.1-4.2,32.4-12.6c6.3-8.4,9.5-19.8,9.5-34.1v-118.1c0-3,.9-5.4,2.7-7.1s4.2-2.7,7.1-2.7h19.3c3,0,5.4.9,7.1,2.7,1.8,1.8,2.7,4.2,2.7,7.1v120.2Z"/>
      <path id="path37" class="st1" d="M2286.2,418.4v-123.8c0-3,.9-5.4,2.7-7.1,1.8-1.8,4.2-2.7,7.1-2.7h15.5c2.4,0,4.4.7,6.1,2.2,1.7,1.5,2.7,3.5,3.1,6.1s1.2,3.9,2.4,3.9,3.4-1.5,6.5-4.5c8.1-7.5,17.3-11.3,27.4-11.3s18.3,1.4,24.7,4.3c6.3,2.9,11.6,6.8,15.8,11.8,8.1,9.9,12.2,23.4,12.2,40.5v80.6c0,3-.9,5.4-2.7,7.1-1.8,1.8-4.2,2.7-7.1,2.7h-17.9c-3,0-5.4-.9-7.1-2.7-1.8-1.8-2.7-4.2-2.7-7.1v-71.4c0-14.3-3.9-23.9-11.6-28.9-2.8-2-6.5-3-11.3-3s-8.8,1-12.1,3c-3.3,2-5.9,4.6-7.9,7.7-3.8,6-5.7,13.7-5.7,23.2v69.3c0,3-.9,5.4-2.7,7.1-1.8,1.8-4.2,2.7-7.1,2.7h-17.9c-3,0-5.4-.9-7.1-2.7-1.8-1.8-2.7-4.2-2.7-7.1h0Z"/>
      <path id="path39" class="st1" d="M2490.4,240.1c0,6.4-2.2,12-6.5,16.5-4.4,4.6-9.8,6.8-16.2,6.8s-11.9-2.3-16.4-6.8c-4.5-4.6-6.7-10-6.7-16.4s2.2-11.8,6.7-16.2c4.5-4.5,9.9-6.7,16.4-6.7s11.9,2.2,16.2,6.5c4.4,4.4,6.5,9.8,6.5,16.2ZM2449,418.4v-123.8c0-3,.9-5.4,2.7-7.1,1.8-1.8,4.2-2.7,7.1-2.7h17.9c3,0,5.4.9,7.1,2.7,1.8,1.8,2.7,4.2,2.7,7.1v123.8c0,3-.9,5.4-2.7,7.1-1.8,1.8-4.2,2.7-7.1,2.7h-17.9c-3,0-5.4-.9-7.1-2.7-1.8-1.8-2.7-4.2-2.7-7.1Z"/>
      <path id="path41" class="st1" d="M2564.1,422l-46.4-124.1c-1.6-4-1.5-7.1.1-9.5,1.7-2.4,4.6-3.6,8.8-3.6h17.6c4.6,0,7.6,2.2,9.2,6.5l22,63.4c2.8,7.9,5.8,11.9,9.1,11.9s6.3-4,9.1-11.9l22.3-63.4c1.6-4.4,4.7-6.5,9.2-6.5h15.8c4,0,6.8,1.2,8.6,3.6,1.8,2.4,1.9,5.6.3,9.5l-44.9,124.1c-1.8,4.2-4.9,6.2-9.2,6.2h-22.3c-4.6,0-7.6-2.1-9.2-6.2h0Z"/>
      <path id="path43" class="st1" d="M2794.1,400.9c-14.1,20.4-33.7,30.6-58.9,30.6s-41.4-6.8-53.9-20.5c-11.9-13.1-17.9-31.2-17.9-54.5s6-40,17.9-53.9c12.1-14.3,29.1-21.4,50.9-21.4s36.9,7.6,48.2,22.9c10.1,13.7,15.2,31.1,15.2,52.4v3.9c0,2.8-1.3,4.2-3.9,4.2h-80.9c-3.2,0-5.7.9-7.4,2.8-1.8,1.9-2.3,4.3-1.5,7.3,3.6,16.3,14.6,24.4,33,24.4s13-1.3,17.6-3.9c4.6-2.6,8.5-6.1,11.8-10.4,3.3-4.4,6.1-6.5,8.6-6.5s4.9.7,7.3,2.1l11.3,8c4.8,3.6,5.7,7.7,2.7,12.5h0ZM2713.2,336h33.6c3.6,0,6.2-1,8-3.1,1.8-2.1,1.9-4.7.3-7.9-4.8-9.7-12.6-14.6-23.5-14.6s-21,5-26.2,14.9c-1.6,3.2-1.5,5.8.1,7.7,1.7,2,4.2,3,7.6,3h0Z"/>
      <path id="path45" class="st1" d="M2825.7,418.4v-123.8c0-3,.9-5.4,2.7-7.1,1.8-1.8,4.2-2.7,7.1-2.7h15.2c5.6,0,8.8,2.9,9.8,8.6v.9c.2,3.2.9,4.8,2.1,4.8s2.7-.9,4.5-2.7c4-4.8,9.1-8.5,15.3-11.2,6.2-2.7,11.4-4,15.3-4,5.8,0,10,.2,12.8.6l3.6.9c2.4.6,3.6,2.1,3.6,4.5v28c0,3-1.6,4.2-4.8,3.6-3.6-1.2-10-1.8-19.2-1.8s-16.6,3.2-22.2,9.7c-5.6,6.4-8.3,14.7-8.3,24.8v66.9c0,3-.9,5.4-2.7,7.1-1.8,1.8-4.2,2.7-7.1,2.7h-17.9c-3,0-5.4-.9-7.1-2.7-1.8-1.8-2.7-4.2-2.7-7.1Z"/>
      <path id="path47" class="st1" d="M2974.5,324.1c0,3,1,5.2,3,6.5,4,2.6,10.8,5.1,20.4,7.4,9.6,2.4,17.4,4.7,23.4,7s11.3,5.2,16.1,8.8c10.1,8.1,15.2,19.1,15.2,33s-6.4,27.3-19.3,34.8c-10.7,6.3-23.3,9.5-37.8,9.5-24,0-43.6-6.2-58.9-18.7-2.2-1.8-3.3-3.9-3.3-6.2s.9-4.6,2.7-6.5l9.8-11c2.4-2.4,4.9-3.6,7.4-3.6s5.1.9,7.4,2.7c9.3,7.3,20.4,11,33.3,11s13-.9,15.9-2.8c2.9-1.9,4.3-4.7,4.3-8.5s-.7-6.5-2.2-8.2c-1.5-1.7-4-3.1-7.4-4.2s-7-2-10.6-2.7c-3.6-.7-8.1-1.6-13.7-2.7-5.6-1.1-11.1-2.7-16.5-4.8-5.5-2.1-10.3-4.8-14.4-8.2-8.5-7.5-12.8-18.1-12.8-31.5s5.8-25.2,17.3-33.3c10.1-7.3,23.7-11,40.6-11s31.8,4.5,44.5,13.4c2.2,1.6,3.4,3.6,3.6,6,.2,2.4-.5,4.7-2.1,6.8l-9.5,12.2c-1.8,2.6-3.8,3.9-6.1,3.9s-5-1.1-8.2-3.3c-6.5-4.2-15.2-6.2-25.9-6.2s-16.1,3.5-16.1,10.4h0Z"/>
      <path id="path49" class="st1" d="M3122.9,240.1c0,6.4-2.2,12-6.5,16.5-4.4,4.6-9.8,6.8-16.2,6.8s-11.9-2.3-16.4-6.8c-4.5-4.6-6.7-10-6.7-16.4s2.2-11.8,6.7-16.2c4.5-4.5,9.9-6.7,16.4-6.7s11.9,2.2,16.2,6.5,6.5,9.8,6.5,16.2ZM3081.6,418.4v-123.8c0-3,.9-5.4,2.7-7.1,1.8-1.8,4.2-2.7,7.1-2.7h17.9c3,0,5.4.9,7.1,2.7,1.8,1.8,2.7,4.2,2.7,7.1v123.8c0,3-.9,5.4-2.7,7.1-1.8,1.8-4.2,2.7-7.1,2.7h-17.9c-3,0-5.4-.9-7.1-2.7-1.8-1.8-2.7-4.2-2.7-7.1Z"/>
      <path id="path51" class="st1" d="M3233.9,430.3c-5.6.8-11.7,1.2-18.4,1.2s-12.9-.6-18.4-1.8c-5.6-1.2-10.2-3.3-14-6.2-7.3-5.8-11-16.2-11-31.2v-65.5c0-3-.9-5.4-2.7-7.1-1.8-1.8-4.2-2.7-7.1-2.7h-7.1c-3,0-5.4-.9-7.1-2.7-1.8-1.8-2.7-4.2-2.7-7.1v-12.5c0-3,.9-5.4,2.7-7.1,1.8-1.8,4.2-2.7,7.1-2.7h7.1c3,0,5.4-.9,7.1-2.7,1.8-1.8,2.7-4.2,2.7-7.1v-30.1c0-3,.9-5.4,2.7-7.1,1.8-1.8,4.2-2.7,7.1-2.7h17.6c3,0,5.4.9,7.1,2.7,1.8,1.8,2.7,4.2,2.7,7.1v30.1c0,3,.9,5.4,2.7,7.1s4.2,2.7,7.1,2.7h19c3,0,5.4.9,7.1,2.7,1.8,1.8,2.7,4.2,2.7,7.1v12.5c0,3-.9,5.4-2.7,7.1-1.8,1.8-4.2,2.7-7.1,2.7h-19c-3,0-5.4.9-7.1,2.7-1.8,1.8-2.7,4.2-2.7,7.1v55.6c0,6.1,1.5,10.3,4.6,12.5,3.1,2.2,7.1,3.3,12.2,3.3s8.7-.4,11-1.2c2.3-.8,4.7-1.7,7.1-2.8,2.5-1.1,3.7,0,3.7,3.4v22.3c0,2-.5,3.8-1.6,5.5s-2.5,2.7-4.3,3.1l-8,1.8Z"/>
      <path id="path53" class="st1" d="M3318.4,240.1c0,6.4-2.2,12-6.5,16.5-4.4,4.6-9.8,6.8-16.2,6.8s-11.9-2.3-16.4-6.8c-4.5-4.6-6.7-10-6.7-16.4s2.2-11.8,6.7-16.2c4.5-4.5,9.9-6.7,16.4-6.7s11.9,2.2,16.2,6.5c4.4,4.4,6.5,9.8,6.5,16.2ZM3277.1,418.4v-123.8c0-3,.9-5.4,2.7-7.1,1.8-1.8,4.2-2.7,7.1-2.7h17.9c3,0,5.4.9,7.1,2.7,1.8,1.8,2.7,4.2,2.7,7.1v123.8c0,3-.9,5.4-2.7,7.1-1.8,1.8-4.2,2.7-7.1,2.7h-17.9c-3,0-5.4-.9-7.1-2.7-1.8-1.8-2.7-4.2-2.7-7.1Z"/>
      <path id="path55" class="st1" d="M3476.1,400.9c-14.1,20.4-33.7,30.6-58.9,30.6s-41.4-6.8-53.9-20.5c-11.9-13.1-17.9-31.2-17.9-54.5s5.9-40,17.9-53.9c12.1-14.3,29.1-21.4,50.9-21.4s36.9,7.6,48.2,22.9c10.1,13.7,15.2,31.1,15.2,52.4v3.9c0,2.8-1.3,4.2-3.9,4.2h-80.9c-3.2,0-5.7.9-7.4,2.8-1.8,1.9-2.3,4.3-1.5,7.3,3.6,16.3,14.6,24.4,33,24.4s13-1.3,17.6-3.9c4.6-2.6,8.5-6.1,11.8-10.4,3.3-4.4,6.1-6.5,8.6-6.5s4.9.7,7.3,2.1l11.3,8c4.8,3.6,5.7,7.7,2.7,12.5h0ZM3395.2,336h33.6c3.6,0,6.2-1,8-3.1,1.8-2.1,1.9-4.7.3-7.9-4.8-9.7-12.6-14.6-23.5-14.6s-21,5-26.2,14.9c-1.6,3.2-1.5,5.8.1,7.7,1.7,2,4.2,3,7.6,3h0Z"/>
      <path id="path57" class="st1" d="M3542.5,324.1c0,3,1,5.2,3,6.5,4,2.6,10.8,5.1,20.4,7.4,9.6,2.4,17.4,4.7,23.4,7,6,2.3,11.3,5.2,16.1,8.8,10.1,8.1,15.2,19.1,15.2,33s-6.4,27.3-19.3,34.8c-10.7,6.3-23.3,9.5-37.8,9.5-24,0-43.6-6.2-58.9-18.7-2.2-1.8-3.3-3.9-3.3-6.2s.9-4.6,2.7-6.5l9.8-11c2.4-2.4,4.9-3.6,7.4-3.6s5.1.9,7.4,2.7c9.3,7.3,20.4,11,33.3,11s13-.9,15.9-2.8c2.9-1.9,4.3-4.7,4.3-8.5s-.7-6.5-2.2-8.2-4-3.1-7.4-4.2c-3.5-1.1-7-2-10.6-2.7-3.6-.7-8.1-1.6-13.7-2.7s-11.1-2.7-16.5-4.8c-5.5-2.1-10.3-4.8-14.4-8.2-8.5-7.5-12.8-18.1-12.8-31.5s5.8-25.2,17.3-33.3c10.1-7.3,23.7-11,40.6-11s31.8,4.5,44.5,13.4c2.2,1.6,3.4,3.6,3.6,6s-.5,4.7-2.1,6.8l-9.5,12.2c-1.8,2.6-3.8,3.9-6.1,3.9s-5-1.1-8.2-3.3c-6.5-4.2-15.2-6.2-25.9-6.2s-16.1,3.5-16.1,10.4h0Z"/>
      <path id="path59" class="st1" d="M1062.5,716v-188.6c0-3,.9-5.4,2.7-7.1,1.8-1.8,4.2-2.7,7.1-2.7h23.2c3.8,0,6.5,1.6,8.3,4.8l45.5,78.8c2.8,4.4,5.6,6.5,8.5,6.5s5.6-2.2,8.2-6.5l44.9-78.8c1.8-3.2,4.6-4.8,8.3-4.8h23.5c3,0,5.4.9,7.1,2.7,1.8,1.8,2.7,4.2,2.7,7.1v188.6c0,3-.9,5.4-2.7,7.1-1.8,1.8-4.2,2.7-7.1,2.7h-19.6c-3,0-5.4-.9-7.1-2.7-1.8-1.8-2.7-4.2-2.7-7.1v-94c0-12.1-1.9-18.1-5.7-18.1s-7.5,4.6-12.5,13.7l-23.8,42.8c-1.8,3.4-4.6,5.1-8.3,5.1h-11.3c-3.8,0-6.5-1.7-8.3-5.1l-23.8-42.8c-5-9.1-9.1-13.7-12.5-13.7s-5.7,6.1-5.7,18.1v94c0,3-.9,5.4-2.7,7.1-1.8,1.8-4.2,2.7-7.1,2.7h-19.3c-3,0-5.4-.9-7.1-2.7-1.8-1.8-2.7-4.2-2.7-7.1h0Z"/>
      <path id="path61" class="st1" d="M1412.7,698.4c-14.1,20.4-33.7,30.6-58.9,30.6s-41.4-6.8-53.9-20.5c-11.9-13.1-17.9-31.2-17.9-54.4s6-40,17.9-53.9c12.1-14.3,29.1-21.4,50.9-21.4s36.9,7.6,48.2,22.9c10.1,13.7,15.2,31.1,15.2,52.4v3.9c0,2.8-1.3,4.2-3.9,4.2h-80.9c-3.2,0-5.7.9-7.4,2.8-1.8,1.9-2.3,4.3-1.5,7.3,3.6,16.3,14.6,24.4,33,24.4s13-1.3,17.6-3.9c4.6-2.6,8.5-6.1,11.8-10.4,3.3-4.4,6.1-6.5,8.6-6.5s4.9.7,7.3,2.1l11.3,8c4.8,3.6,5.7,7.7,2.7,12.5h0ZM1331.7,633.6h33.6c3.6,0,6.2-1,8-3.1,1.8-2.1,1.9-4.7.3-7.9-4.8-9.7-12.6-14.6-23.5-14.6s-21,5-26.2,14.9c-1.6,3.2-1.5,5.8.1,7.7,1.7,2,4.2,3,7.6,3h0Z"/>
      <path id="path63" class="st1" d="M1520.7,727.9c-5.6.8-11.7,1.2-18.4,1.2s-12.9-.6-18.4-1.8c-5.6-1.2-10.2-3.3-14-6.2-7.3-5.8-11-16.2-11-31.2v-65.5c0-3-.9-5.4-2.7-7.1-1.8-1.8-4.2-2.7-7.1-2.7h-7.1c-3,0-5.4-.9-7.1-2.7-1.8-1.8-2.7-4.2-2.7-7.1v-12.5c0-3,.9-5.4,2.7-7.1s4.2-2.7,7.1-2.7h7.1c3,0,5.4-.9,7.1-2.7,1.8-1.8,2.7-4.2,2.7-7.1v-30.1c0-3,.9-5.4,2.7-7.1,1.8-1.8,4.2-2.7,7.1-2.7h17.6c3,0,5.4.9,7.1,2.7s2.7,4.2,2.7,7.1v30.1c0,3,.9,5.4,2.7,7.1,1.8,1.8,4.2,2.7,7.1,2.7h19c3,0,5.4.9,7.1,2.7s2.7,4.2,2.7,7.1v12.5c0,3-.9,5.4-2.7,7.1-1.8,1.8-4.2,2.7-7.1,2.7h-19c-3,0-5.4.9-7.1,2.7s-2.7,4.2-2.7,7.1v55.6c0,6.1,1.5,10.3,4.6,12.5,3.1,2.2,7.1,3.3,12.2,3.3s8.7-.4,11-1.2c2.3-.8,4.7-1.7,7.1-2.8,2.5-1.1,3.7,0,3.7,3.4v22.3c0,2-.5,3.8-1.6,5.5s-2.5,2.7-4.3,3.1l-8,1.8Z"/>
      <path id="path65" class="st1" d="M1608.4,727.6c-15.3.8-28.3-2.6-39-10.1-10.5-7.5-15.8-18.4-15.8-32.7s6.8-27.2,20.5-36.3c12.3-8.3,26.3-12.7,42-13.1,6.5-.6,13.3.5,20.2,3.3,3,1.4,4.5.5,4.5-2.7v-4.8c0-8.3-1.8-13.7-5.4-16.2-3.6-2.5-8.7-3.7-15.5-3.7-13.5,0-27,3.6-40.5,10.7-2,1.2-4.3,1.8-7,1.8s-5.1-1.8-7.3-5.4l-6.8-11.6c-1.6-2.4-2-4.8-1.3-7.1.7-2.4,2.3-4.3,4.9-5.7,19-10.1,38.2-15.2,57.6-15.2s33.7,3.9,43,11.6,14,21.3,14,40.8v62.5c0,4.2.8,6.5,2.5,7s3.9.4,6.7-.1c4.2-1,6.2.6,6.2,4.8v10.1c0,5.6-4,8.9-11.9,10.1-4.4,1.4-9.7,2.1-15.9,2.1s-11.4-1.2-15.3-3.6c-3.2-2.4-6.3-3.6-9.5-3.6s-5.9.5-8,1.5c-6.5,3.2-14.2,5.1-22.9,5.7h0ZM1589.7,685c1,7.7,8.1,11.2,21.4,10.4,8.3-.6,15.6-2.7,21.7-6.2,6.1-3.2,9-7.5,8.6-12.9-.4-5.5-2.6-8.9-6.5-10.3-4-1.4-9.8-1.9-17.6-1.6-7.7.3-14.4,2.6-19.9,7-5.4,4.6-7.9,9.1-7.7,13.7h0Z"/>
      <path id="path67" class="st1" d="M1751.6,719.6l-46.4-124.1c-1.6-4-1.5-7.1.1-9.5s4.6-3.6,8.8-3.6h17.6c4.6,0,7.6,2.2,9.2,6.5l22,63.4c2.8,7.9,5.8,11.9,9.1,11.9s6.3-4,9.1-11.9l22.3-63.4c1.6-4.4,4.7-6.5,9.2-6.5h15.8c4,0,6.8,1.2,8.6,3.6s1.9,5.6.3,9.5l-44.9,124.1c-1.8,4.2-4.9,6.2-9.2,6.2h-22.3c-4.6,0-7.6-2.1-9.2-6.2Z"/>
      <path id="path69" class="st1" d="M1981.6,698.4c-14.1,20.4-33.7,30.6-58.9,30.6s-41.4-6.8-53.9-20.5c-11.9-13.1-17.9-31.2-17.9-54.4s6-40,17.9-53.9c12.1-14.3,29.1-21.4,50.9-21.4s36.9,7.6,48.2,22.9c10.1,13.7,15.2,31.1,15.2,52.4v3.9c0,2.8-1.3,4.2-3.9,4.2h-80.9c-3.2,0-5.7.9-7.4,2.8-1.8,1.9-2.3,4.3-1.5,7.3,3.6,16.3,14.6,24.4,33,24.4s13-1.3,17.6-3.9c4.6-2.6,8.5-6.1,11.8-10.4,3.3-4.4,6.1-6.5,8.6-6.5s4.9.7,7.3,2.1l11.3,8c4.8,3.6,5.7,7.7,2.7,12.5h0ZM1900.6,633.6h33.6c3.6,0,6.2-1,8-3.1,1.8-2.1,1.9-4.7.3-7.9-4.8-9.7-12.6-14.6-23.5-14.6s-21,5-26.2,14.9c-1.6,3.2-1.5,5.8.1,7.7,1.7,2,4.2,3,7.6,3h0Z"/>
      <path id="path71" class="st1" d="M2013.1,716v-123.8c0-3,.9-5.4,2.7-7.1,1.8-1.8,4.2-2.7,7.1-2.7h15.2c5.6,0,8.8,2.9,9.8,8.6v.9c.2,3.2.9,4.8,2.1,4.8s2.7-.9,4.5-2.7c4-4.8,9.1-8.5,15.3-11.2,6.2-2.7,11.4-4,15.3-4,5.8,0,10,.2,12.8.6l3.6.9c2.4.6,3.6,2.1,3.6,4.5v28c0,3-1.6,4.2-4.8,3.6-3.6-1.2-10-1.8-19.2-1.8s-16.6,3.2-22.2,9.7-8.3,14.7-8.3,24.8v66.9c0,3-.9,5.4-2.7,7.1-1.8,1.8-4.2,2.7-7.1,2.7h-17.9c-3,0-5.4-.9-7.1-2.7-1.8-1.8-2.7-4.2-2.7-7.1Z"/>
      <path id="path73" class="st1" d="M2161.9,621.7c0,3,1,5.2,3,6.5,4,2.6,10.8,5.1,20.4,7.4,9.6,2.4,17.4,4.7,23.4,7,6,2.3,11.3,5.2,16.1,8.8,10.1,8.1,15.2,19.1,15.2,33s-6.4,27.3-19.3,34.8c-10.7,6.3-23.3,9.5-37.8,9.5-24,0-43.6-6.2-58.9-18.7-2.2-1.8-3.3-3.9-3.3-6.2s.9-4.6,2.7-6.5l9.8-11c2.4-2.4,4.9-3.6,7.4-3.6s5.1.9,7.4,2.7c9.3,7.3,20.4,11,33.3,11s13-.9,15.9-2.8,4.3-4.7,4.3-8.5-.7-6.5-2.2-8.2c-1.5-1.7-4-3.1-7.4-4.2-3.5-1.1-7-2-10.6-2.7-3.6-.7-8.1-1.6-13.7-2.7s-11.1-2.7-16.5-4.8c-5.5-2.1-10.3-4.8-14.4-8.2-8.5-7.5-12.8-18.1-12.8-31.5s5.8-25.2,17.3-33.3c10.1-7.3,23.7-11,40.6-11s31.8,4.5,44.5,13.4c2.2,1.6,3.4,3.6,3.6,6,.2,2.4-.5,4.7-2.1,6.8l-9.5,12.2c-1.8,2.6-3.8,3.9-6.1,3.9s-5-1.1-8.2-3.3c-6.5-4.2-15.2-6.2-25.9-6.2s-16.1,3.5-16.1,10.4h0Z"/>
      <path id="path75" class="st1" d="M2387.7,698.4c-14.1,20.4-33.7,30.6-58.9,30.6s-41.4-6.8-53.9-20.5c-11.9-13.1-17.9-31.2-17.9-54.4s6-40,17.9-53.9c12.1-14.3,29.1-21.4,50.9-21.4s36.9,7.6,48.2,22.9c10.1,13.7,15.2,31.1,15.2,52.4v3.9c0,2.8-1.3,4.2-3.9,4.2h-80.9c-3.2,0-5.7.9-7.4,2.8-1.8,1.9-2.3,4.3-1.5,7.3,3.6,16.3,14.6,24.4,33,24.4s13-1.3,17.6-3.9c4.6-2.6,8.5-6.1,11.8-10.4,3.3-4.4,6.1-6.5,8.6-6.5s4.9.7,7.3,2.1l11.3,8c4.8,3.6,5.7,7.7,2.7,12.5h0ZM2306.8,633.6h33.6c3.6,0,6.2-1,8-3.1,1.8-2.1,1.9-4.7.3-7.9-4.8-9.7-12.6-14.6-23.5-14.6s-21,5-26.2,14.9c-1.6,3.2-1.5,5.8.1,7.7,1.7,2,4.2,3,7.6,3h0Z"/>
      <path id="path77" class="st1" d="M2492.7,712.7l70.8-188.9c1.6-4.2,4.7-6.2,9.2-6.2h20.5c4.6,0,7.6,2.1,9.2,6.2l70.8,188.9c1.6,4,1.5,7.1-.1,9.5-1.7,2.4-4.6,3.6-8.8,3.6h-22.9c-4.6,0-7.5-2.2-8.9-6.5l-9.8-28.3c-1.4-4.4-4.4-6.5-8.9-6.5h-62.8c-4.6,0-7.5,2.2-8.9,6.5l-9.8,28.3c-1.4,4.4-4.4,6.5-8.9,6.5h-21.7c-4.2,0-7.1-1.2-8.8-3.6-1.7-2.4-1.7-5.6-.1-9.5ZM2570.4,648.7h24.7c4,0,6.8-1.1,8.5-3.4,1.7-2.3,1.8-5.4.4-9.4l-12.2-36c-2.8-8.1-5.8-12.2-8.9-12.2s-6.2,4.1-9.2,12.2l-12.5,36c-1.4,4-1.2,7.1.4,9.4,1.7,2.3,4.6,3.4,8.8,3.4Z"/>
      <path id="path79" class="st1" d="M2698,716v-191.9c0-3,.9-5.4,2.7-7.1,1.8-1.8,4.2-2.7,7.1-2.7h17.9c3,0,5.4.9,7.1,2.7,1.8,1.8,2.7,4.2,2.7,7.1v191.9c0,3-.9,5.4-2.7,7.1-1.8,1.8-4.2,2.7-7.1,2.7h-17.9c-3,0-5.4-.9-7.1-2.7-1.8-1.8-2.7-4.2-2.7-7.1Z"/>
      <path id="path81" class="st1" d="M2770,716v-191.9c0-3,.9-5.4,2.7-7.1,1.8-1.8,4.2-2.7,7.1-2.7h17.9c3,0,5.4.9,7.1,2.7,1.8,1.8,2.7,4.2,2.7,7.1v191.9c0,3-.9,5.4-2.7,7.1-1.8,1.8-4.2,2.7-7.1,2.7h-17.9c-3,0-5.4-.9-7.1-2.7-1.8-1.8-2.7-4.2-2.7-7.1Z"/>
      <path id="path83" class="st1" d="M2887.9,537.6c0,6.4-2.2,12-6.5,16.5s-9.8,6.8-16.2,6.8-11.9-2.3-16.4-6.8-6.7-10-6.7-16.4,2.2-11.8,6.7-16.2c4.5-4.5,9.9-6.7,16.4-6.7s11.9,2.2,16.2,6.5,6.5,9.8,6.5,16.2h0ZM2846.5,716v-123.8c0-3,.9-5.4,2.7-7.1,1.8-1.8,4.2-2.7,7.1-2.7h17.9c3,0,5.4.9,7.1,2.7,1.8,1.8,2.7,4.2,2.7,7.1v123.8c0,3-.9,5.4-2.7,7.1-1.8,1.8-4.2,2.7-7.1,2.7h-17.9c-3,0-5.4-.9-7.1-2.7-1.8-1.8-2.7-4.2-2.7-7.1Z"/>
      <path id="path85" class="st1" d="M2971.5,727.6c-15.3.8-28.3-2.6-39-10.1-10.5-7.5-15.8-18.4-15.8-32.7s6.8-27.2,20.5-36.3c12.3-8.3,26.3-12.7,42-13.1,6.5-.6,13.3.5,20.2,3.3,3,1.4,4.5.5,4.5-2.7v-4.8c0-8.3-1.8-13.7-5.4-16.2-3.6-2.5-8.7-3.7-15.5-3.7-13.5,0-27,3.6-40.5,10.7-2,1.2-4.3,1.8-7,1.8s-5.1-1.8-7.3-5.4l-6.8-11.6c-1.6-2.4-2-4.8-1.3-7.1.7-2.4,2.3-4.3,4.9-5.7,19-10.1,38.2-15.2,57.6-15.2s33.7,3.9,43,11.6,14,21.3,14,40.8v62.5c0,4.2.8,6.5,2.5,7s3.9.4,6.7-.1c4.2-1,6.2.6,6.2,4.8v10.1c0,5.6-4,8.9-11.9,10.1-4.4,1.4-9.7,2.1-15.9,2.1s-11.4-1.2-15.3-3.6c-3.2-2.4-6.3-3.6-9.5-3.6s-5.9.5-8,1.5c-6.5,3.2-14.2,5.1-22.9,5.7h0ZM2952.7,685c1,7.7,8.1,11.2,21.4,10.4,8.3-.6,15.6-2.7,21.7-6.2,6.1-3.2,9-7.5,8.6-12.9s-2.6-8.9-6.5-10.3c-4-1.4-9.8-1.9-17.6-1.6-7.7.3-14.4,2.6-19.9,7-5.4,4.6-7.9,9.1-7.7,13.7h0Z"/>
      <path id="path87" class="st1" d="M3081.3,716v-123.8c0-3,.9-5.4,2.7-7.1,1.8-1.8,4.2-2.7,7.1-2.7h15.5c2.4,0,4.4.7,6.1,2.2,1.7,1.5,2.7,3.5,3.1,6.1.4,2.6,1.2,3.9,2.4,3.9s3.4-1.5,6.5-4.5c8.1-7.5,17.3-11.3,27.4-11.3s18.3,1.4,24.7,4.3c6.3,2.9,11.6,6.8,15.8,11.8,8.1,9.9,12.2,23.4,12.2,40.5v80.6c0,3-.9,5.4-2.7,7.1-1.8,1.8-4.2,2.7-7.1,2.7h-17.9c-3,0-5.4-.9-7.1-2.7-1.8-1.8-2.7-4.2-2.7-7.1v-71.4c0-14.3-3.9-23.9-11.6-28.9-2.8-2-6.5-3-11.3-3s-8.8,1-12.1,3c-3.3,2-5.9,4.6-7.9,7.7-3.8,6-5.7,13.7-5.7,23.2v69.3c0,3-.9,5.4-2.7,7.1-1.8,1.8-4.2,2.7-7.1,2.7h-17.9c-3,0-5.4-.9-7.1-2.7-1.8-1.8-2.7-4.2-2.7-7.1h0Z"/>
      <path id="path89" class="st1" d="M3353.2,707.7c-12.1,14.3-29.6,21.4-52.4,21.4s-19.5-2-28.3-6c-8.7-4-16.1-9.3-22-16.1-12.3-13.9-18.4-31.5-18.4-53s6.2-39.5,18.7-53.6c13.1-14.5,30.1-21.7,51.2-21.7s18.8,1.7,28,5.1c9.1,3.4,16.9,8.8,23.2,16.4,1.8,2,2.5,4.2,2.1,6.5-.4,2.4-1.7,4.5-3.9,6.2l-12.8,9.5c-2.2,1.6-4.6,2.4-7.3,2.4s-5.6-1.6-8.8-4.8c-5-5-11.1-7.4-18.4-7.4s-13,1.2-17,3.6c-4,2.4-7.2,5.6-9.8,9.5-4.8,7.1-7.1,16.6-7.1,28.3,0,18.2,5.7,30.7,17,37.5,4.2,2.4,9.8,3.6,16.8,3.6s13.3-2.6,18.9-7.7c3.2-2.8,6.1-4.2,8.6-4.2s4.9.7,6.8,2.1l13.1,9.5c2.2,1.8,3.5,3.9,3.9,6.2.4,2.4-.3,4.6-2.1,6.5h0Z"/>
      <path id="path91" class="st1" d="M3503.2,698.4c-14.1,20.4-33.7,30.6-58.9,30.6s-41.4-6.8-53.9-20.5c-11.9-13.1-17.9-31.2-17.9-54.4s6-40,17.9-53.9c12.1-14.3,29.1-21.4,50.9-21.4s36.9,7.6,48.2,22.9c10.1,13.7,15.2,31.1,15.2,52.4v3.9c0,2.8-1.3,4.2-3.9,4.2h-80.9c-3.2,0-5.7.9-7.4,2.8-1.8,1.9-2.3,4.3-1.5,7.3,3.6,16.3,14.6,24.4,33,24.4s13-1.3,17.6-3.9c4.6-2.6,8.5-6.1,11.8-10.4,3.3-4.4,6.1-6.5,8.6-6.5s4.9.7,7.3,2.1l11.3,8c4.8,3.6,5.7,7.7,2.7,12.5h0ZM3422.3,633.6h33.6c3.6,0,6.2-1,8-3.1,1.8-2.1,1.9-4.7.3-7.9-4.8-9.7-12.6-14.6-23.5-14.6s-21,5-26.2,14.9c-1.6,3.2-1.5,5.8.1,7.7,1.7,2,4.2,3,7.6,3h0Z"/>
    </g>
  </g>
</svg>