<?xml version="1.0" encoding="UTF-8" standalone="no"?>
<!DOCTYPE svg PUBLIC "-//W3C//DTD SVG 1.1//EN" "http://www.w3.org/Graphics/SVG/1.1/DTD/svg11.dtd">
<svg width="100%" height="100%" viewBox="0 0 4096 4096" version="1.1" xmlns="http://www.w3.org/2000/svg" xmlns:xlink="http://www.w3.org/1999/xlink" xml:space="preserve" xmlns:serif="http://www.serif.com/" style="fill-rule:evenodd;clip-rule:evenodd;stroke-linejoin:round;stroke-miterlimit:2;">
    <g transform="matrix(1.685835,0,0,1.685835,-1980.751871,1008.811096)">
        <g transform="matrix(697.813776,0,0,697.813776,1947.084472,443.71504)">
            <path d="M0.067,-0.033L0.067,-0.667C0.067,-0.677 0.07,-0.685 0.076,-0.691C0.082,-0.697 0.09,-0.7 0.1,-0.7L0.18,-0.7C0.191,-0.7 0.2,-0.695 0.207,-0.685L0.45,-0.317C0.466,-0.293 0.479,-0.281 0.49,-0.281C0.503,-0.281 0.51,-0.299 0.51,-0.335L0.51,-0.667C0.51,-0.677 0.513,-0.685 0.519,-0.691C0.525,-0.697 0.533,-0.7 0.543,-0.7L0.608,-0.7C0.618,-0.7 0.626,-0.697 0.632,-0.691C0.638,-0.685 0.641,-0.677 0.641,-0.667L0.641,-0.033C0.641,-0.023 0.638,-0.015 0.632,-0.009C0.626,-0.003 0.618,-0 0.608,-0L0.535,-0C0.523,-0 0.514,-0.005 0.507,-0.015L0.257,-0.398C0.241,-0.422 0.228,-0.434 0.217,-0.434C0.204,-0.434 0.197,-0.416 0.197,-0.38L0.197,-0.033C0.197,-0.023 0.194,-0.015 0.188,-0.009C0.182,-0.003 0.174,-0 0.164,-0L0.1,-0C0.09,-0 0.082,-0.003 0.076,-0.009C0.07,-0.015 0.067,-0.023 0.067,-0.033Z" style="fill:rgb(128,128,128);fill-rule:nonzero;"/>
        </g>
        <g transform="matrix(697.813776,0,0,697.813776,2440.438812,443.71504)">
            <path d="M0.268,0.011C0.231,0.011 0.198,0.004 0.169,-0.009C0.14,-0.022 0.115,-0.04 0.095,-0.063C0.054,-0.11 0.033,-0.169 0.033,-0.241C0.033,-0.314 0.054,-0.374 0.096,-0.421C0.14,-0.47 0.197,-0.494 0.268,-0.494C0.341,-0.494 0.399,-0.469 0.442,-0.42C0.483,-0.374 0.503,-0.314 0.503,-0.241C0.503,-0.168 0.482,-0.108 0.44,-0.061C0.397,-0.013 0.339,0.011 0.268,0.011ZM0.218,-0.115C0.232,-0.107 0.249,-0.103 0.269,-0.103C0.288,-0.103 0.305,-0.107 0.319,-0.115C0.332,-0.123 0.343,-0.133 0.352,-0.146C0.369,-0.171 0.377,-0.203 0.377,-0.241C0.377,-0.304 0.358,-0.346 0.319,-0.368C0.305,-0.376 0.288,-0.38 0.268,-0.38C0.232,-0.38 0.204,-0.365 0.185,-0.336C0.169,-0.312 0.161,-0.28 0.161,-0.241C0.161,-0.18 0.18,-0.138 0.218,-0.115Z" style="fill:rgb(128,128,128);fill-rule:nonzero;"/>
        </g>
        <g transform="matrix(697.813776,0,0,697.813776,1464.19734,1141.528815)">
            <path d="M0.067,-0.033L0.067,-0.667C0.067,-0.677 0.07,-0.685 0.076,-0.691C0.082,-0.697 0.09,-0.7 0.1,-0.7L0.164,-0.7C0.174,-0.7 0.182,-0.697 0.188,-0.691C0.194,-0.685 0.197,-0.677 0.197,-0.667L0.197,-0.033C0.197,-0.023 0.194,-0.015 0.188,-0.009C0.182,-0.003 0.174,-0 0.164,-0L0.1,-0C0.09,-0 0.082,-0.003 0.076,-0.009C0.07,-0.015 0.067,-0.023 0.067,-0.033Z" style="fill:rgb(128,128,128);fill-rule:nonzero;"/>
        </g>
        <g transform="matrix(697.813776,0,0,697.813776,1648.420176,1141.528815)">
            <path d="M0.058,-0.033L0.058,-0.449C0.058,-0.459 0.061,-0.467 0.067,-0.473C0.073,-0.479 0.081,-0.482 0.091,-0.482L0.143,-0.482C0.151,-0.482 0.158,-0.479 0.164,-0.475C0.169,-0.47 0.173,-0.463 0.174,-0.455C0.176,-0.44 0.183,-0.439 0.194,-0.452C0.218,-0.48 0.252,-0.494 0.297,-0.494C0.328,-0.494 0.354,-0.487 0.377,-0.473C0.391,-0.462 0.402,-0.453 0.409,-0.445C0.416,-0.436 0.424,-0.432 0.431,-0.432C0.438,-0.432 0.448,-0.438 0.459,-0.45C0.47,-0.462 0.486,-0.472 0.506,-0.481C0.526,-0.49 0.548,-0.494 0.572,-0.494C0.596,-0.494 0.618,-0.489 0.638,-0.478C0.658,-0.467 0.675,-0.453 0.688,-0.436C0.713,-0.403 0.725,-0.359 0.725,-0.304L0.725,-0.033C0.725,-0.023 0.722,-0.015 0.716,-0.009C0.71,-0.003 0.702,-0 0.692,-0L0.631,-0C0.621,-0 0.613,-0.003 0.607,-0.009C0.601,-0.015 0.598,-0.023 0.598,-0.033L0.598,-0.273C0.598,-0.318 0.587,-0.35 0.566,-0.369C0.558,-0.376 0.547,-0.38 0.532,-0.38C0.517,-0.38 0.505,-0.377 0.494,-0.37C0.484,-0.363 0.476,-0.355 0.47,-0.344C0.459,-0.324 0.454,-0.298 0.454,-0.266L0.454,-0.033C0.454,-0.023 0.451,-0.015 0.445,-0.009C0.439,-0.003 0.431,-0 0.421,-0L0.361,-0C0.351,-0 0.343,-0.003 0.337,-0.009C0.331,-0.015 0.328,-0.023 0.328,-0.033L0.328,-0.273C0.328,-0.318 0.317,-0.35 0.294,-0.369C0.286,-0.376 0.275,-0.38 0.262,-0.38C0.21,-0.38 0.184,-0.342 0.184,-0.266L0.184,-0.033C0.184,-0.023 0.181,-0.015 0.175,-0.009C0.169,-0.003 0.161,-0 0.151,-0L0.091,-0C0.081,-0 0.073,-0.003 0.067,-0.009C0.061,-0.015 0.058,-0.023 0.058,-0.033Z" style="fill:rgb(128,128,128);fill-rule:nonzero;"/>
        </g>
        <g transform="matrix(697.813776,0,0,697.813776,2194.808363,1141.528815)">
            <path d="M0.223,0.006C0.172,0.009 0.128,-0.003 0.092,-0.028C0.057,-0.053 0.039,-0.09 0.039,-0.138C0.039,-0.189 0.062,-0.229 0.108,-0.26C0.149,-0.288 0.196,-0.303 0.249,-0.304C0.271,-0.306 0.294,-0.302 0.317,-0.293C0.327,-0.288 0.332,-0.291 0.332,-0.302L0.332,-0.318C0.332,-0.346 0.326,-0.364 0.314,-0.372C0.302,-0.381 0.285,-0.385 0.262,-0.385C0.217,-0.385 0.171,-0.373 0.126,-0.349C0.119,-0.345 0.112,-0.343 0.103,-0.343C0.093,-0.343 0.085,-0.349 0.078,-0.361L0.055,-0.4C0.05,-0.408 0.048,-0.416 0.051,-0.424C0.053,-0.432 0.058,-0.438 0.067,-0.443C0.131,-0.477 0.196,-0.494 0.261,-0.494C0.325,-0.494 0.374,-0.481 0.405,-0.455C0.436,-0.429 0.452,-0.383 0.452,-0.318L0.452,-0.108C0.452,-0.094 0.455,-0.086 0.461,-0.085C0.466,-0.083 0.474,-0.083 0.483,-0.085C0.497,-0.088 0.504,-0.083 0.504,-0.069L0.504,-0.035C0.504,-0.016 0.491,-0.005 0.464,-0.001C0.449,0.004 0.431,0.006 0.411,0.006C0.39,0.006 0.372,0.002 0.359,-0.006C0.348,-0.014 0.338,-0.018 0.327,-0.018C0.316,-0.018 0.307,-0.016 0.3,-0.013C0.278,-0.002 0.252,0.004 0.223,0.006ZM0.16,-0.137C0.163,-0.111 0.187,-0.099 0.232,-0.102C0.26,-0.104 0.284,-0.111 0.305,-0.123C0.326,-0.134 0.335,-0.148 0.334,-0.167C0.333,-0.185 0.325,-0.196 0.312,-0.201C0.299,-0.206 0.279,-0.208 0.253,-0.207C0.227,-0.206 0.205,-0.198 0.186,-0.183C0.168,-0.168 0.159,-0.152 0.16,-0.137Z" style="fill:rgb(128,128,128);fill-rule:nonzero;"/>
        </g>
        <g transform="matrix(697.813776,0,0,697.813776,2553.484643,1141.528815)">
            <path d="M0.488,-0.059C0.488,0.11 0.411,0.195 0.257,0.195C0.214,0.195 0.176,0.188 0.143,0.175C0.11,0.162 0.081,0.138 0.054,0.103C0.049,0.096 0.047,0.088 0.049,0.08C0.05,0.072 0.055,0.065 0.063,0.06L0.109,0.029C0.115,0.025 0.122,0.023 0.131,0.023C0.14,0.023 0.147,0.027 0.154,0.035C0.165,0.048 0.177,0.058 0.193,0.068C0.208,0.076 0.228,0.081 0.253,0.081C0.278,0.081 0.297,0.077 0.311,0.07C0.325,0.063 0.336,0.053 0.344,0.04C0.357,0.019 0.363,-0.014 0.363,-0.059L0.363,-0.065C0.363,-0.069 0.362,-0.07 0.359,-0.067C0.329,-0.043 0.295,-0.031 0.257,-0.031C0.218,-0.031 0.185,-0.037 0.158,-0.048C0.131,-0.059 0.108,-0.075 0.089,-0.096C0.052,-0.137 0.033,-0.193 0.033,-0.264C0.033,-0.335 0.052,-0.391 0.09,-0.432C0.128,-0.473 0.182,-0.494 0.253,-0.494C0.295,-0.494 0.331,-0.482 0.36,-0.457C0.369,-0.45 0.375,-0.452 0.377,-0.464C0.378,-0.476 0.385,-0.482 0.398,-0.482L0.455,-0.482C0.465,-0.482 0.473,-0.479 0.479,-0.473C0.485,-0.467 0.488,-0.459 0.488,-0.449L0.488,-0.059ZM0.264,-0.14C0.299,-0.14 0.326,-0.152 0.345,-0.176C0.363,-0.2 0.372,-0.229 0.372,-0.263C0.372,-0.297 0.363,-0.326 0.345,-0.349C0.326,-0.372 0.299,-0.384 0.263,-0.384C0.212,-0.384 0.18,-0.359 0.167,-0.31C0.163,-0.295 0.161,-0.28 0.161,-0.264C0.161,-0.247 0.163,-0.232 0.167,-0.216C0.171,-0.202 0.177,-0.188 0.185,-0.177C0.202,-0.152 0.229,-0.14 0.264,-0.14Z" style="fill:rgb(128,128,128);fill-rule:nonzero;"/>
        </g>
        <g transform="matrix(697.813776,0,0,697.813776,2935.188779,1141.528815)">
            <path d="M0.472,-0.092C0.425,-0.023 0.359,0.011 0.274,0.011C0.195,0.011 0.135,-0.012 0.093,-0.058C0.053,-0.102 0.033,-0.163 0.033,-0.241C0.033,-0.315 0.053,-0.375 0.093,-0.422C0.134,-0.47 0.191,-0.494 0.264,-0.494C0.334,-0.494 0.388,-0.468 0.426,-0.417C0.46,-0.371 0.477,-0.312 0.477,-0.241L0.477,-0.228C0.477,-0.219 0.473,-0.214 0.464,-0.214L0.192,-0.214C0.181,-0.214 0.173,-0.211 0.167,-0.205C0.161,-0.198 0.159,-0.19 0.162,-0.18C0.174,-0.125 0.211,-0.098 0.273,-0.098C0.297,-0.098 0.317,-0.102 0.332,-0.111C0.347,-0.12 0.36,-0.131 0.371,-0.146C0.383,-0.161 0.392,-0.168 0.401,-0.168C0.409,-0.168 0.417,-0.166 0.425,-0.161L0.463,-0.134C0.479,-0.122 0.482,-0.108 0.472,-0.092ZM0.2,-0.31L0.313,-0.31C0.325,-0.31 0.334,-0.314 0.34,-0.321C0.346,-0.328 0.346,-0.336 0.341,-0.347C0.325,-0.38 0.299,-0.396 0.262,-0.396C0.221,-0.396 0.191,-0.379 0.174,-0.346C0.169,-0.335 0.169,-0.327 0.175,-0.32C0.18,-0.313 0.189,-0.31 0.2,-0.31Z" style="fill:rgb(128,128,128);fill-rule:nonzero;"/>
        </g>
    </g>
</svg>
